<svg width="146" height="372" viewBox="0 0 146 372" fill="none" xmlns="http://www.w3.org/2000/svg">
<g clip-path="url(#clip0_47_187)">
<path fill-rule="evenodd" clip-rule="evenodd" d="M-15.5 8.5C-15.5 7.94772 -15.0523 7.5 -14.5 7.5L0.5 7.5C1.05228 7.5 1.5 7.94772 1.5 8.5C1.5 9.05228 1.05228 9.5 0.5 9.5L-14.5 9.5C-15.0523 9.5 -15.5 9.05228 -15.5 8.5Z" fill="#E6EAF0"/>
<path fill-rule="evenodd" clip-rule="evenodd" d="M-15.5 268.5C-15.5 267.948 -15.0523 267.5 -14.5 267.5H0.5C1.05228 267.5 1.5 267.948 1.5 268.5C1.5 269.052 1.05228 269.5 0.5 269.5H-14.5C-15.0523 269.5 -15.5 269.052 -15.5 268.5Z" fill="#E6EAF0"/>
<path fill-rule="evenodd" clip-rule="evenodd" d="M-15.5 28.5C-15.5 27.9477 -15.0523 27.5 -14.5 27.5H0.5C1.05228 27.5 1.5 27.9477 1.5 28.5C1.5 29.0523 1.05228 29.5 0.5 29.5H-14.5C-15.0523 29.5 -15.5 29.0523 -15.5 28.5Z" fill="#E6EAF0"/>
<path fill-rule="evenodd" clip-rule="evenodd" d="M-15.5 288.5C-15.5 287.948 -15.0523 287.5 -14.5 287.5H0.5C1.05228 287.5 1.5 287.948 1.5 288.5C1.5 289.052 1.05228 289.5 0.5 289.5H-14.5C-15.0523 289.5 -15.5 289.052 -15.5 288.5Z" fill="#E6EAF0"/>
<path fill-rule="evenodd" clip-rule="evenodd" d="M-15.5 48.5C-15.5 47.9477 -15.0523 47.5 -14.5 47.5H0.5C1.05228 47.5 1.5 47.9477 1.5 48.5C1.5 49.0523 1.05228 49.5 0.5 49.5H-14.5C-15.0523 49.5 -15.5 49.0523 -15.5 48.5Z" fill="#E6EAF0"/>
<path fill-rule="evenodd" clip-rule="evenodd" d="M-15.5 308.5C-15.5 307.948 -15.0523 307.5 -14.5 307.5H0.5C1.05228 307.5 1.5 307.948 1.5 308.5C1.5 309.052 1.05228 309.5 0.5 309.5H-14.5C-15.0523 309.5 -15.5 309.052 -15.5 308.5Z" fill="#E6EAF0"/>
<path fill-rule="evenodd" clip-rule="evenodd" d="M-15.5 68.5C-15.5 67.9477 -15.0523 67.5 -14.5 67.5H0.5C1.05228 67.5 1.5 67.9477 1.5 68.5C1.5 69.0523 1.05228 69.5 0.5 69.5H-14.5C-15.0523 69.5 -15.5 69.0523 -15.5 68.5Z" fill="#E6EAF0"/>
<path fill-rule="evenodd" clip-rule="evenodd" d="M-15.5 328.5C-15.5 327.948 -15.0523 327.5 -14.5 327.5H0.5C1.05228 327.5 1.5 327.948 1.5 328.5C1.5 329.052 1.05228 329.5 0.5 329.5H-14.5C-15.0523 329.5 -15.5 329.052 -15.5 328.5Z" fill="#E6EAF0"/>
<path fill-rule="evenodd" clip-rule="evenodd" d="M-15.5 88.5C-15.5 87.9477 -15.0523 87.5 -14.5 87.5H0.5C1.05228 87.5 1.5 87.9477 1.5 88.5C1.5 89.0523 1.05228 89.5 0.5 89.5H-14.5C-15.0523 89.5 -15.5 89.0523 -15.5 88.5Z" fill="#E6EAF0"/>
<path fill-rule="evenodd" clip-rule="evenodd" d="M-15.5 348.5C-15.5 347.948 -15.0523 347.5 -14.5 347.5H0.5C1.05228 347.5 1.5 347.948 1.5 348.5C1.5 349.052 1.05228 349.5 0.5 349.5H-14.5C-15.0523 349.5 -15.5 349.052 -15.5 348.5Z" fill="#E6EAF0"/>
<path fill-rule="evenodd" clip-rule="evenodd" d="M-15.5 108.5C-15.5 107.948 -15.0523 107.5 -14.5 107.5H0.5C1.05228 107.5 1.5 107.948 1.5 108.5C1.5 109.052 1.05228 109.5 0.5 109.5H-14.5C-15.0523 109.5 -15.5 109.052 -15.5 108.5Z" fill="#E6EAF0"/>
<path fill-rule="evenodd" clip-rule="evenodd" d="M-15.5 368.5C-15.5 367.948 -15.0523 367.5 -14.5 367.5H0.5C1.05228 367.5 1.5 367.948 1.5 368.5C1.5 369.052 1.05228 369.5 0.5 369.5H-14.5C-15.0523 369.5 -15.5 369.052 -15.5 368.5Z" fill="#E6EAF0"/>
<path fill-rule="evenodd" clip-rule="evenodd" d="M-15.5 128.5C-15.5 127.948 -15.0523 127.5 -14.5 127.5H0.5C1.05228 127.5 1.5 127.948 1.5 128.5C1.5 129.052 1.05228 129.5 0.5 129.5H-14.5C-15.0523 129.5 -15.5 129.052 -15.5 128.5Z" fill="#E6EAF0"/>
<path fill-rule="evenodd" clip-rule="evenodd" d="M-15.5 148.5C-15.5 147.948 -15.0523 147.5 -14.5 147.5H0.5C1.05228 147.5 1.5 147.948 1.5 148.5C1.5 149.052 1.05228 149.5 0.5 149.5H-14.5C-15.0523 149.5 -15.5 149.052 -15.5 148.5Z" fill="#E6EAF0"/>
<path fill-rule="evenodd" clip-rule="evenodd" d="M-15.5 168.5C-15.5 167.948 -15.0523 167.5 -14.5 167.5H0.5C1.05228 167.5 1.5 167.948 1.5 168.5C1.5 169.052 1.05228 169.5 0.5 169.5H-14.5C-15.0523 169.5 -15.5 169.052 -15.5 168.5Z" fill="#E6EAF0"/>
<path fill-rule="evenodd" clip-rule="evenodd" d="M-15.5 188.5C-15.5 187.948 -15.0523 187.5 -14.5 187.5H0.5C1.05228 187.5 1.5 187.948 1.5 188.5C1.5 189.052 1.05228 189.5 0.5 189.5H-14.5C-15.0523 189.5 -15.5 189.052 -15.5 188.5Z" fill="#E6EAF0"/>
<path fill-rule="evenodd" clip-rule="evenodd" d="M-15.5 208.5C-15.5 207.948 -15.0523 207.5 -14.5 207.5H0.5C1.05228 207.5 1.5 207.948 1.5 208.5C1.5 209.052 1.05228 209.5 0.5 209.5H-14.5C-15.0523 209.5 -15.5 209.052 -15.5 208.5Z" fill="#E6EAF0"/>
<path fill-rule="evenodd" clip-rule="evenodd" d="M-15.5 228.5C-15.5 227.948 -15.0523 227.5 -14.5 227.5H0.5C1.05228 227.5 1.5 227.948 1.5 228.5C1.5 229.052 1.05228 229.5 0.5 229.5H-14.5C-15.0523 229.5 -15.5 229.052 -15.5 228.5Z" fill="#E6EAF0"/>
<path fill-rule="evenodd" clip-rule="evenodd" d="M-15.5 248.5C-15.5 247.948 -15.0523 247.5 -14.5 247.5H0.5C1.05228 247.5 1.5 247.948 1.5 248.5C1.5 249.052 1.05228 249.5 0.5 249.5H-14.5C-15.0523 249.5 -15.5 249.052 -15.5 248.5Z" fill="#E6EAF0"/>
<path fill-rule="evenodd" clip-rule="evenodd" d="M13.5 0C14.0523 0 14.5 0.447715 14.5 1V16C14.5 16.5523 14.0523 17 13.5 17C12.9477 17 12.5 16.5523 12.5 16V1C12.5 0.447715 12.9477 0 13.5 0Z" fill="#E6EAF0"/>
<path fill-rule="evenodd" clip-rule="evenodd" d="M13.5 260C14.0523 260 14.5 260.448 14.5 261V276C14.5 276.552 14.0523 277 13.5 277C12.9477 277 12.5 276.552 12.5 276V261C12.5 260.448 12.9477 260 13.5 260Z" fill="#E6EAF0"/>
<path fill-rule="evenodd" clip-rule="evenodd" d="M5 8.5C5 7.94772 5.44772 7.5 6 7.5L21 7.5C21.5523 7.5 22 7.94772 22 8.5C22 9.05228 21.5523 9.5 21 9.5L6 9.5C5.44772 9.5 5 9.05228 5 8.5Z" fill="#E6EAF0"/>
<path fill-rule="evenodd" clip-rule="evenodd" d="M5 268.5C5 267.948 5.44772 267.5 6 267.5H21C21.5523 267.5 22 267.948 22 268.5C22 269.052 21.5523 269.5 21 269.5H6C5.44772 269.5 5 269.052 5 268.5Z" fill="#E6EAF0"/>
<path fill-rule="evenodd" clip-rule="evenodd" d="M13.5 20C14.0523 20 14.5 20.4477 14.5 21V36C14.5 36.5523 14.0523 37 13.5 37C12.9477 37 12.5 36.5523 12.5 36V21C12.5 20.4477 12.9477 20 13.5 20Z" fill="#E6EAF0"/>
<path fill-rule="evenodd" clip-rule="evenodd" d="M13.5 280C14.0523 280 14.5 280.448 14.5 281V296C14.5 296.552 14.0523 297 13.5 297C12.9477 297 12.5 296.552 12.5 296V281C12.5 280.448 12.9477 280 13.5 280Z" fill="#E6EAF0"/>
<path fill-rule="evenodd" clip-rule="evenodd" d="M5 28.5C5 27.9477 5.44772 27.5 6 27.5H21C21.5523 27.5 22 27.9477 22 28.5C22 29.0523 21.5523 29.5 21 29.5H6C5.44772 29.5 5 29.0523 5 28.5Z" fill="#E6EAF0"/>
<path fill-rule="evenodd" clip-rule="evenodd" d="M5 288.5C5 287.948 5.44772 287.5 6 287.5H21C21.5523 287.5 22 287.948 22 288.5C22 289.052 21.5523 289.5 21 289.5H6C5.44772 289.5 5 289.052 5 288.5Z" fill="#E6EAF0"/>
<path fill-rule="evenodd" clip-rule="evenodd" d="M13.5 40C14.0523 40 14.5 40.4477 14.5 41V56C14.5 56.5523 14.0523 57 13.5 57C12.9477 57 12.5 56.5523 12.5 56V41C12.5 40.4477 12.9477 40 13.5 40Z" fill="#E6EAF0"/>
<path fill-rule="evenodd" clip-rule="evenodd" d="M13.5 300C14.0523 300 14.5 300.448 14.5 301V316C14.5 316.552 14.0523 317 13.5 317C12.9477 317 12.5 316.552 12.5 316V301C12.5 300.448 12.9477 300 13.5 300Z" fill="#E6EAF0"/>
<path fill-rule="evenodd" clip-rule="evenodd" d="M5 48.5C5 47.9477 5.44772 47.5 6 47.5H21C21.5523 47.5 22 47.9477 22 48.5C22 49.0523 21.5523 49.5 21 49.5H6C5.44772 49.5 5 49.0523 5 48.5Z" fill="#E6EAF0"/>
<path fill-rule="evenodd" clip-rule="evenodd" d="M5 308.5C5 307.948 5.44772 307.5 6 307.5H21C21.5523 307.5 22 307.948 22 308.5C22 309.052 21.5523 309.5 21 309.5H6C5.44772 309.5 5 309.052 5 308.5Z" fill="#E6EAF0"/>
<path fill-rule="evenodd" clip-rule="evenodd" d="M13.5 60C14.0523 60 14.5 60.4477 14.5 61V76C14.5 76.5523 14.0523 77 13.5 77C12.9477 77 12.5 76.5523 12.5 76V61C12.5 60.4477 12.9477 60 13.5 60Z" fill="#E6EAF0"/>
<path fill-rule="evenodd" clip-rule="evenodd" d="M13.5 320C14.0523 320 14.5 320.448 14.5 321V336C14.5 336.552 14.0523 337 13.5 337C12.9477 337 12.5 336.552 12.5 336V321C12.5 320.448 12.9477 320 13.5 320Z" fill="#E6EAF0"/>
<path fill-rule="evenodd" clip-rule="evenodd" d="M5 68.5C5 67.9477 5.44772 67.5 6 67.5H21C21.5523 67.5 22 67.9477 22 68.5C22 69.0523 21.5523 69.5 21 69.5H6C5.44772 69.5 5 69.0523 5 68.5Z" fill="#E6EAF0"/>
<path fill-rule="evenodd" clip-rule="evenodd" d="M5 328.5C5 327.948 5.44772 327.5 6 327.5H21C21.5523 327.5 22 327.948 22 328.5C22 329.052 21.5523 329.5 21 329.5H6C5.44772 329.5 5 329.052 5 328.5Z" fill="#E6EAF0"/>
<path fill-rule="evenodd" clip-rule="evenodd" d="M13.5 80C14.0523 80 14.5 80.4477 14.5 81V96C14.5 96.5523 14.0523 97 13.5 97C12.9477 97 12.5 96.5523 12.5 96V81C12.5 80.4477 12.9477 80 13.5 80Z" fill="#E6EAF0"/>
<path fill-rule="evenodd" clip-rule="evenodd" d="M13.5 340C14.0523 340 14.5 340.448 14.5 341V356C14.5 356.552 14.0523 357 13.5 357C12.9477 357 12.5 356.552 12.5 356V341C12.5 340.448 12.9477 340 13.5 340Z" fill="#E6EAF0"/>
<path fill-rule="evenodd" clip-rule="evenodd" d="M5 88.5C5 87.9477 5.44772 87.5 6 87.5H21C21.5523 87.5 22 87.9477 22 88.5C22 89.0523 21.5523 89.5 21 89.5H6C5.44772 89.5 5 89.0523 5 88.5Z" fill="#E6EAF0"/>
<path fill-rule="evenodd" clip-rule="evenodd" d="M5 348.5C5 347.948 5.44772 347.5 6 347.5H21C21.5523 347.5 22 347.948 22 348.5C22 349.052 21.5523 349.5 21 349.5H6C5.44772 349.5 5 349.052 5 348.5Z" fill="#E6EAF0"/>
<path fill-rule="evenodd" clip-rule="evenodd" d="M13.5 100C14.0523 100 14.5 100.448 14.5 101V116C14.5 116.552 14.0523 117 13.5 117C12.9477 117 12.5 116.552 12.5 116V101C12.5 100.448 12.9477 100 13.5 100Z" fill="#E6EAF0"/>
<path fill-rule="evenodd" clip-rule="evenodd" d="M13.5 360C14.0523 360 14.5 360.448 14.5 361V376C14.5 376.552 14.0523 377 13.5 377C12.9477 377 12.5 376.552 12.5 376V361C12.5 360.448 12.9477 360 13.5 360Z" fill="#E6EAF0"/>
<path fill-rule="evenodd" clip-rule="evenodd" d="M5 108.5C5 107.948 5.44772 107.5 6 107.5H21C21.5523 107.5 22 107.948 22 108.5C22 109.052 21.5523 109.5 21 109.5H6C5.44772 109.5 5 109.052 5 108.5Z" fill="#E6EAF0"/>
<path fill-rule="evenodd" clip-rule="evenodd" d="M5 368.5C5 367.948 5.44772 367.5 6 367.5H21C21.5523 367.5 22 367.948 22 368.5C22 369.052 21.5523 369.5 21 369.5H6C5.44772 369.5 5 369.052 5 368.5Z" fill="#E6EAF0"/>
<path fill-rule="evenodd" clip-rule="evenodd" d="M13.5 120C14.0523 120 14.5 120.448 14.5 121V136C14.5 136.552 14.0523 137 13.5 137C12.9477 137 12.5 136.552 12.5 136V121C12.5 120.448 12.9477 120 13.5 120Z" fill="#E6EAF0"/>
<path fill-rule="evenodd" clip-rule="evenodd" d="M5 128.5C5 127.948 5.44772 127.5 6 127.5H21C21.5523 127.5 22 127.948 22 128.5C22 129.052 21.5523 129.5 21 129.5H6C5.44772 129.5 5 129.052 5 128.5Z" fill="#E6EAF0"/>
<path fill-rule="evenodd" clip-rule="evenodd" d="M13.5 140C14.0523 140 14.5 140.448 14.5 141V156C14.5 156.552 14.0523 157 13.5 157C12.9477 157 12.5 156.552 12.5 156V141C12.5 140.448 12.9477 140 13.5 140Z" fill="#E6EAF0"/>
<path fill-rule="evenodd" clip-rule="evenodd" d="M5 148.5C5 147.948 5.44772 147.5 6 147.5H21C21.5523 147.5 22 147.948 22 148.5C22 149.052 21.5523 149.5 21 149.5H6C5.44772 149.5 5 149.052 5 148.5Z" fill="#E6EAF0"/>
<path fill-rule="evenodd" clip-rule="evenodd" d="M13.5 160C14.0523 160 14.5 160.448 14.5 161V176C14.5 176.552 14.0523 177 13.5 177C12.9477 177 12.5 176.552 12.5 176V161C12.5 160.448 12.9477 160 13.5 160Z" fill="#E6EAF0"/>
<path fill-rule="evenodd" clip-rule="evenodd" d="M5 168.5C5 167.948 5.44772 167.5 6 167.5H21C21.5523 167.5 22 167.948 22 168.5C22 169.052 21.5523 169.5 21 169.5H6C5.44772 169.5 5 169.052 5 168.5Z" fill="#E6EAF0"/>
<path fill-rule="evenodd" clip-rule="evenodd" d="M13.5 180C14.0523 180 14.5 180.448 14.5 181V196C14.5 196.552 14.0523 197 13.5 197C12.9477 197 12.5 196.552 12.5 196V181C12.5 180.448 12.9477 180 13.5 180Z" fill="#E6EAF0"/>
<path fill-rule="evenodd" clip-rule="evenodd" d="M5 188.5C5 187.948 5.44772 187.5 6 187.5H21C21.5523 187.5 22 187.948 22 188.5C22 189.052 21.5523 189.5 21 189.5H6C5.44772 189.5 5 189.052 5 188.5Z" fill="#E6EAF0"/>
<path fill-rule="evenodd" clip-rule="evenodd" d="M13.5 200C14.0523 200 14.5 200.448 14.5 201V216C14.5 216.552 14.0523 217 13.5 217C12.9477 217 12.5 216.552 12.5 216V201C12.5 200.448 12.9477 200 13.5 200Z" fill="#E6EAF0"/>
<path fill-rule="evenodd" clip-rule="evenodd" d="M5 208.5C5 207.948 5.44772 207.5 6 207.5H21C21.5523 207.5 22 207.948 22 208.5C22 209.052 21.5523 209.5 21 209.5H6C5.44772 209.5 5 209.052 5 208.5Z" fill="#E6EAF0"/>
<path fill-rule="evenodd" clip-rule="evenodd" d="M13.5 220C14.0523 220 14.5 220.448 14.5 221V236C14.5 236.552 14.0523 237 13.5 237C12.9477 237 12.5 236.552 12.5 236V221C12.5 220.448 12.9477 220 13.5 220Z" fill="#E6EAF0"/>
<path fill-rule="evenodd" clip-rule="evenodd" d="M5 228.5C5 227.948 5.44772 227.5 6 227.5H21C21.5523 227.5 22 227.948 22 228.5C22 229.052 21.5523 229.5 21 229.5H6C5.44772 229.5 5 229.052 5 228.5Z" fill="#E6EAF0"/>
<path fill-rule="evenodd" clip-rule="evenodd" d="M13.5 240C14.0523 240 14.5 240.448 14.5 241V256C14.5 256.552 14.0523 257 13.5 257C12.9477 257 12.5 256.552 12.5 256V241C12.5 240.448 12.9477 240 13.5 240Z" fill="#E6EAF0"/>
<path fill-rule="evenodd" clip-rule="evenodd" d="M5 248.5C5 247.948 5.44772 247.5 6 247.5H21C21.5523 247.5 22 247.948 22 248.5C22 249.052 21.5523 249.5 21 249.5H6C5.44772 249.5 5 249.052 5 248.5Z" fill="#E6EAF0"/>
<path fill-rule="evenodd" clip-rule="evenodd" d="M34 0C34.5523 0 35 0.447715 35 1V16C35 16.5523 34.5523 17 34 17C33.4477 17 33 16.5523 33 16V1C33 0.447715 33.4477 0 34 0Z" fill="#E6EAF0"/>
<path fill-rule="evenodd" clip-rule="evenodd" d="M34 260C34.5523 260 35 260.448 35 261V276C35 276.552 34.5523 277 34 277C33.4477 277 33 276.552 33 276V261C33 260.448 33.4477 260 34 260Z" fill="#E6EAF0"/>
<path fill-rule="evenodd" clip-rule="evenodd" d="M25.5 8.5C25.5 7.94772 25.9477 7.5 26.5 7.5L41.5 7.5C42.0523 7.5 42.5 7.94772 42.5 8.5C42.5 9.05228 42.0523 9.5 41.5 9.5L26.5 9.5C25.9477 9.5 25.5 9.05228 25.5 8.5Z" fill="#E6EAF0"/>
<path fill-rule="evenodd" clip-rule="evenodd" d="M25.5 268.5C25.5 267.948 25.9477 267.5 26.5 267.5H41.5C42.0523 267.5 42.5 267.948 42.5 268.5C42.5 269.052 42.0523 269.5 41.5 269.5H26.5C25.9477 269.5 25.5 269.052 25.5 268.5Z" fill="#E6EAF0"/>
<path fill-rule="evenodd" clip-rule="evenodd" d="M34 20C34.5523 20 35 20.4477 35 21V36C35 36.5523 34.5523 37 34 37C33.4477 37 33 36.5523 33 36V21C33 20.4477 33.4477 20 34 20Z" fill="#E6EAF0"/>
<path fill-rule="evenodd" clip-rule="evenodd" d="M34 280C34.5523 280 35 280.448 35 281V296C35 296.552 34.5523 297 34 297C33.4477 297 33 296.552 33 296V281C33 280.448 33.4477 280 34 280Z" fill="#E6EAF0"/>
<path fill-rule="evenodd" clip-rule="evenodd" d="M25.5 28.5C25.5 27.9477 25.9477 27.5 26.5 27.5H41.5C42.0523 27.5 42.5 27.9477 42.5 28.5C42.5 29.0523 42.0523 29.5 41.5 29.5H26.5C25.9477 29.5 25.5 29.0523 25.5 28.5Z" fill="#E6EAF0"/>
<path fill-rule="evenodd" clip-rule="evenodd" d="M25.5 288.5C25.5 287.948 25.9477 287.5 26.5 287.5H41.5C42.0523 287.5 42.5 287.948 42.5 288.5C42.5 289.052 42.0523 289.5 41.5 289.5H26.5C25.9477 289.5 25.5 289.052 25.5 288.5Z" fill="#E6EAF0"/>
<path fill-rule="evenodd" clip-rule="evenodd" d="M34 40C34.5523 40 35 40.4477 35 41V56C35 56.5523 34.5523 57 34 57C33.4477 57 33 56.5523 33 56V41C33 40.4477 33.4477 40 34 40Z" fill="#E6EAF0"/>
<path fill-rule="evenodd" clip-rule="evenodd" d="M34 300C34.5523 300 35 300.448 35 301V316C35 316.552 34.5523 317 34 317C33.4477 317 33 316.552 33 316V301C33 300.448 33.4477 300 34 300Z" fill="#E6EAF0"/>
<path fill-rule="evenodd" clip-rule="evenodd" d="M25.5 48.5C25.5 47.9477 25.9477 47.5 26.5 47.5H41.5C42.0523 47.5 42.5 47.9477 42.5 48.5C42.5 49.0523 42.0523 49.5 41.5 49.5H26.5C25.9477 49.5 25.5 49.0523 25.5 48.5Z" fill="#E6EAF0"/>
<path fill-rule="evenodd" clip-rule="evenodd" d="M25.5 308.5C25.5 307.948 25.9477 307.5 26.5 307.5H41.5C42.0523 307.5 42.5 307.948 42.5 308.5C42.5 309.052 42.0523 309.5 41.5 309.5H26.5C25.9477 309.5 25.5 309.052 25.5 308.5Z" fill="#E6EAF0"/>
<path fill-rule="evenodd" clip-rule="evenodd" d="M34 60C34.5523 60 35 60.4477 35 61V76C35 76.5523 34.5523 77 34 77C33.4477 77 33 76.5523 33 76V61C33 60.4477 33.4477 60 34 60Z" fill="#E6EAF0"/>
<path fill-rule="evenodd" clip-rule="evenodd" d="M34 320C34.5523 320 35 320.448 35 321V336C35 336.552 34.5523 337 34 337C33.4477 337 33 336.552 33 336V321C33 320.448 33.4477 320 34 320Z" fill="#E6EAF0"/>
<path fill-rule="evenodd" clip-rule="evenodd" d="M25.5 68.5C25.5 67.9477 25.9477 67.5 26.5 67.5H41.5C42.0523 67.5 42.5 67.9477 42.5 68.5C42.5 69.0523 42.0523 69.5 41.5 69.5H26.5C25.9477 69.5 25.5 69.0523 25.5 68.5Z" fill="#E6EAF0"/>
<path fill-rule="evenodd" clip-rule="evenodd" d="M25.5 328.5C25.5 327.948 25.9477 327.5 26.5 327.5H41.5C42.0523 327.5 42.5 327.948 42.5 328.5C42.5 329.052 42.0523 329.5 41.5 329.5H26.5C25.9477 329.5 25.5 329.052 25.5 328.5Z" fill="#E6EAF0"/>
<path fill-rule="evenodd" clip-rule="evenodd" d="M34 80C34.5523 80 35 80.4477 35 81V96C35 96.5523 34.5523 97 34 97C33.4477 97 33 96.5523 33 96V81C33 80.4477 33.4477 80 34 80Z" fill="#E6EAF0"/>
<path fill-rule="evenodd" clip-rule="evenodd" d="M34 340C34.5523 340 35 340.448 35 341V356C35 356.552 34.5523 357 34 357C33.4477 357 33 356.552 33 356V341C33 340.448 33.4477 340 34 340Z" fill="#E6EAF0"/>
<path fill-rule="evenodd" clip-rule="evenodd" d="M25.5 88.5C25.5 87.9477 25.9477 87.5 26.5 87.5H41.5C42.0523 87.5 42.5 87.9477 42.5 88.5C42.5 89.0523 42.0523 89.5 41.5 89.5H26.5C25.9477 89.5 25.5 89.0523 25.5 88.5Z" fill="#E6EAF0"/>
<path fill-rule="evenodd" clip-rule="evenodd" d="M25.5 348.5C25.5 347.948 25.9477 347.5 26.5 347.5H41.5C42.0523 347.5 42.5 347.948 42.5 348.5C42.5 349.052 42.0523 349.5 41.5 349.5H26.5C25.9477 349.5 25.5 349.052 25.5 348.5Z" fill="#E6EAF0"/>
<path fill-rule="evenodd" clip-rule="evenodd" d="M34 100C34.5523 100 35 100.448 35 101V116C35 116.552 34.5523 117 34 117C33.4477 117 33 116.552 33 116V101C33 100.448 33.4477 100 34 100Z" fill="#E6EAF0"/>
<path fill-rule="evenodd" clip-rule="evenodd" d="M34 360C34.5523 360 35 360.448 35 361V376C35 376.552 34.5523 377 34 377C33.4477 377 33 376.552 33 376V361C33 360.448 33.4477 360 34 360Z" fill="#E6EAF0"/>
<path fill-rule="evenodd" clip-rule="evenodd" d="M25.5 108.5C25.5 107.948 25.9477 107.5 26.5 107.5H41.5C42.0523 107.5 42.5 107.948 42.5 108.5C42.5 109.052 42.0523 109.5 41.5 109.5H26.5C25.9477 109.5 25.5 109.052 25.5 108.5Z" fill="#E6EAF0"/>
<path fill-rule="evenodd" clip-rule="evenodd" d="M25.5 368.5C25.5 367.948 25.9477 367.5 26.5 367.5H41.5C42.0523 367.5 42.5 367.948 42.5 368.5C42.5 369.052 42.0523 369.5 41.5 369.5H26.5C25.9477 369.5 25.5 369.052 25.5 368.5Z" fill="#E6EAF0"/>
<path fill-rule="evenodd" clip-rule="evenodd" d="M34 120C34.5523 120 35 120.448 35 121V136C35 136.552 34.5523 137 34 137C33.4477 137 33 136.552 33 136V121C33 120.448 33.4477 120 34 120Z" fill="#E6EAF0"/>
<path fill-rule="evenodd" clip-rule="evenodd" d="M25.5 128.5C25.5 127.948 25.9477 127.5 26.5 127.5H41.5C42.0523 127.5 42.5 127.948 42.5 128.5C42.5 129.052 42.0523 129.5 41.5 129.5H26.5C25.9477 129.5 25.5 129.052 25.5 128.5Z" fill="#E6EAF0"/>
<path fill-rule="evenodd" clip-rule="evenodd" d="M34 140C34.5523 140 35 140.448 35 141V156C35 156.552 34.5523 157 34 157C33.4477 157 33 156.552 33 156V141C33 140.448 33.4477 140 34 140Z" fill="#E6EAF0"/>
<path fill-rule="evenodd" clip-rule="evenodd" d="M25.5 148.5C25.5 147.948 25.9477 147.5 26.5 147.5H41.5C42.0523 147.5 42.5 147.948 42.5 148.5C42.5 149.052 42.0523 149.5 41.5 149.5H26.5C25.9477 149.5 25.5 149.052 25.5 148.5Z" fill="#E6EAF0"/>
<path fill-rule="evenodd" clip-rule="evenodd" d="M34 160C34.5523 160 35 160.448 35 161V176C35 176.552 34.5523 177 34 177C33.4477 177 33 176.552 33 176V161C33 160.448 33.4477 160 34 160Z" fill="#E6EAF0"/>
<path fill-rule="evenodd" clip-rule="evenodd" d="M25.5 168.5C25.5 167.948 25.9477 167.5 26.5 167.5H41.5C42.0523 167.5 42.5 167.948 42.5 168.5C42.5 169.052 42.0523 169.5 41.5 169.5H26.5C25.9477 169.5 25.5 169.052 25.5 168.5Z" fill="#E6EAF0"/>
<path fill-rule="evenodd" clip-rule="evenodd" d="M34 180C34.5523 180 35 180.448 35 181V196C35 196.552 34.5523 197 34 197C33.4477 197 33 196.552 33 196V181C33 180.448 33.4477 180 34 180Z" fill="#E6EAF0"/>
<path fill-rule="evenodd" clip-rule="evenodd" d="M25.5 188.5C25.5 187.948 25.9477 187.5 26.5 187.5H41.5C42.0523 187.5 42.5 187.948 42.5 188.5C42.5 189.052 42.0523 189.5 41.5 189.5H26.5C25.9477 189.5 25.5 189.052 25.5 188.5Z" fill="#E6EAF0"/>
<path fill-rule="evenodd" clip-rule="evenodd" d="M34 200C34.5523 200 35 200.448 35 201V216C35 216.552 34.5523 217 34 217C33.4477 217 33 216.552 33 216V201C33 200.448 33.4477 200 34 200Z" fill="#E6EAF0"/>
<path fill-rule="evenodd" clip-rule="evenodd" d="M25.5 208.5C25.5 207.948 25.9477 207.5 26.5 207.5H41.5C42.0523 207.5 42.5 207.948 42.5 208.5C42.5 209.052 42.0523 209.5 41.5 209.5H26.5C25.9477 209.5 25.5 209.052 25.5 208.5Z" fill="#E6EAF0"/>
<path fill-rule="evenodd" clip-rule="evenodd" d="M34 220C34.5523 220 35 220.448 35 221V236C35 236.552 34.5523 237 34 237C33.4477 237 33 236.552 33 236V221C33 220.448 33.4477 220 34 220Z" fill="#E6EAF0"/>
<path fill-rule="evenodd" clip-rule="evenodd" d="M25.5 228.5C25.5 227.948 25.9477 227.5 26.5 227.5H41.5C42.0523 227.5 42.5 227.948 42.5 228.5C42.5 229.052 42.0523 229.5 41.5 229.5H26.5C25.9477 229.5 25.5 229.052 25.5 228.5Z" fill="#E6EAF0"/>
<path fill-rule="evenodd" clip-rule="evenodd" d="M34 240C34.5523 240 35 240.448 35 241V256C35 256.552 34.5523 257 34 257C33.4477 257 33 256.552 33 256V241C33 240.448 33.4477 240 34 240Z" fill="#E6EAF0"/>
<path fill-rule="evenodd" clip-rule="evenodd" d="M25.5 248.5C25.5 247.948 25.9477 247.5 26.5 247.5H41.5C42.0523 247.5 42.5 247.948 42.5 248.5C42.5 249.052 42.0523 249.5 41.5 249.5H26.5C25.9477 249.5 25.5 249.052 25.5 248.5Z" fill="#E6EAF0"/>
<path fill-rule="evenodd" clip-rule="evenodd" d="M54.5 0C55.0523 0 55.5 0.447715 55.5 1V16C55.5 16.5523 55.0523 17 54.5 17C53.9477 17 53.5 16.5523 53.5 16V1C53.5 0.447715 53.9477 0 54.5 0Z" fill="#E6EAF0"/>
<path fill-rule="evenodd" clip-rule="evenodd" d="M54.5 260C55.0523 260 55.5 260.448 55.5 261V276C55.5 276.552 55.0523 277 54.5 277C53.9477 277 53.5 276.552 53.5 276V261C53.5 260.448 53.9477 260 54.5 260Z" fill="#E6EAF0"/>
<path fill-rule="evenodd" clip-rule="evenodd" d="M46 8.5C46 7.94772 46.4477 7.5 47 7.5L62 7.5C62.5523 7.5 63 7.94772 63 8.5C63 9.05228 62.5523 9.5 62 9.5L47 9.5C46.4477 9.5 46 9.05228 46 8.5Z" fill="#E6EAF0"/>
<path fill-rule="evenodd" clip-rule="evenodd" d="M46 268.5C46 267.948 46.4477 267.5 47 267.5H62C62.5523 267.5 63 267.948 63 268.5C63 269.052 62.5523 269.5 62 269.5H47C46.4477 269.5 46 269.052 46 268.5Z" fill="#E6EAF0"/>
<path fill-rule="evenodd" clip-rule="evenodd" d="M54.5 20C55.0523 20 55.5 20.4477 55.5 21V36C55.5 36.5523 55.0523 37 54.5 37C53.9477 37 53.5 36.5523 53.5 36V21C53.5 20.4477 53.9477 20 54.5 20Z" fill="#E6EAF0"/>
<path fill-rule="evenodd" clip-rule="evenodd" d="M54.5 280C55.0523 280 55.5 280.448 55.5 281V296C55.5 296.552 55.0523 297 54.5 297C53.9477 297 53.5 296.552 53.5 296V281C53.5 280.448 53.9477 280 54.5 280Z" fill="#E6EAF0"/>
<path fill-rule="evenodd" clip-rule="evenodd" d="M46 28.5C46 27.9477 46.4477 27.5 47 27.5H62C62.5523 27.5 63 27.9477 63 28.5C63 29.0523 62.5523 29.5 62 29.5H47C46.4477 29.5 46 29.0523 46 28.5Z" fill="#E6EAF0"/>
<path fill-rule="evenodd" clip-rule="evenodd" d="M46 288.5C46 287.948 46.4477 287.5 47 287.5H62C62.5523 287.5 63 287.948 63 288.5C63 289.052 62.5523 289.5 62 289.5H47C46.4477 289.5 46 289.052 46 288.5Z" fill="#E6EAF0"/>
<path fill-rule="evenodd" clip-rule="evenodd" d="M54.5 40C55.0523 40 55.5 40.4477 55.5 41V56C55.5 56.5523 55.0523 57 54.5 57C53.9477 57 53.5 56.5523 53.5 56V41C53.5 40.4477 53.9477 40 54.5 40Z" fill="#E6EAF0"/>
<path fill-rule="evenodd" clip-rule="evenodd" d="M54.5 300C55.0523 300 55.5 300.448 55.5 301V316C55.5 316.552 55.0523 317 54.5 317C53.9477 317 53.5 316.552 53.5 316V301C53.5 300.448 53.9477 300 54.5 300Z" fill="#E6EAF0"/>
<path fill-rule="evenodd" clip-rule="evenodd" d="M46 48.5C46 47.9477 46.4477 47.5 47 47.5H62C62.5523 47.5 63 47.9477 63 48.5C63 49.0523 62.5523 49.5 62 49.5H47C46.4477 49.5 46 49.0523 46 48.5Z" fill="#E6EAF0"/>
<path fill-rule="evenodd" clip-rule="evenodd" d="M46 308.5C46 307.948 46.4477 307.5 47 307.5H62C62.5523 307.5 63 307.948 63 308.5C63 309.052 62.5523 309.5 62 309.5H47C46.4477 309.5 46 309.052 46 308.5Z" fill="#E6EAF0"/>
<path fill-rule="evenodd" clip-rule="evenodd" d="M54.5 60C55.0523 60 55.5 60.4477 55.5 61V76C55.5 76.5523 55.0523 77 54.5 77C53.9477 77 53.5 76.5523 53.5 76V61C53.5 60.4477 53.9477 60 54.5 60Z" fill="#E6EAF0"/>
<path fill-rule="evenodd" clip-rule="evenodd" d="M54.5 320C55.0523 320 55.5 320.448 55.5 321V336C55.5 336.552 55.0523 337 54.5 337C53.9477 337 53.5 336.552 53.5 336V321C53.5 320.448 53.9477 320 54.5 320Z" fill="#E6EAF0"/>
<path fill-rule="evenodd" clip-rule="evenodd" d="M46 68.5C46 67.9477 46.4477 67.5 47 67.5H62C62.5523 67.5 63 67.9477 63 68.5C63 69.0523 62.5523 69.5 62 69.5H47C46.4477 69.5 46 69.0523 46 68.5Z" fill="#E6EAF0"/>
<path fill-rule="evenodd" clip-rule="evenodd" d="M46 328.5C46 327.948 46.4477 327.5 47 327.5H62C62.5523 327.5 63 327.948 63 328.5C63 329.052 62.5523 329.5 62 329.5H47C46.4477 329.5 46 329.052 46 328.5Z" fill="#E6EAF0"/>
<path fill-rule="evenodd" clip-rule="evenodd" d="M54.5 80C55.0523 80 55.5 80.4477 55.5 81V96C55.5 96.5523 55.0523 97 54.5 97C53.9477 97 53.5 96.5523 53.5 96V81C53.5 80.4477 53.9477 80 54.5 80Z" fill="#E6EAF0"/>
<path fill-rule="evenodd" clip-rule="evenodd" d="M54.5 340C55.0523 340 55.5 340.448 55.5 341V356C55.5 356.552 55.0523 357 54.5 357C53.9477 357 53.5 356.552 53.5 356V341C53.5 340.448 53.9477 340 54.5 340Z" fill="#E6EAF0"/>
<path fill-rule="evenodd" clip-rule="evenodd" d="M46 88.5C46 87.9477 46.4477 87.5 47 87.5H62C62.5523 87.5 63 87.9477 63 88.5C63 89.0523 62.5523 89.5 62 89.5H47C46.4477 89.5 46 89.0523 46 88.5Z" fill="#E6EAF0"/>
<path fill-rule="evenodd" clip-rule="evenodd" d="M46 348.5C46 347.948 46.4477 347.5 47 347.5H62C62.5523 347.5 63 347.948 63 348.5C63 349.052 62.5523 349.5 62 349.5H47C46.4477 349.5 46 349.052 46 348.5Z" fill="#E6EAF0"/>
<path fill-rule="evenodd" clip-rule="evenodd" d="M54.5 100C55.0523 100 55.5 100.448 55.5 101V116C55.5 116.552 55.0523 117 54.5 117C53.9477 117 53.5 116.552 53.5 116V101C53.5 100.448 53.9477 100 54.5 100Z" fill="#E6EAF0"/>
<path fill-rule="evenodd" clip-rule="evenodd" d="M54.5 360C55.0523 360 55.5 360.448 55.5 361V376C55.5 376.552 55.0523 377 54.5 377C53.9477 377 53.5 376.552 53.5 376V361C53.5 360.448 53.9477 360 54.5 360Z" fill="#E6EAF0"/>
<path fill-rule="evenodd" clip-rule="evenodd" d="M46 108.5C46 107.948 46.4477 107.5 47 107.5H62C62.5523 107.5 63 107.948 63 108.5C63 109.052 62.5523 109.5 62 109.5H47C46.4477 109.5 46 109.052 46 108.5Z" fill="#E6EAF0"/>
<path fill-rule="evenodd" clip-rule="evenodd" d="M46 368.5C46 367.948 46.4477 367.5 47 367.5H62C62.5523 367.5 63 367.948 63 368.5C63 369.052 62.5523 369.5 62 369.5H47C46.4477 369.5 46 369.052 46 368.5Z" fill="#E6EAF0"/>
<path fill-rule="evenodd" clip-rule="evenodd" d="M54.5 120C55.0523 120 55.5 120.448 55.5 121V136C55.5 136.552 55.0523 137 54.5 137C53.9477 137 53.5 136.552 53.5 136V121C53.5 120.448 53.9477 120 54.5 120Z" fill="#E6EAF0"/>
<path fill-rule="evenodd" clip-rule="evenodd" d="M46 128.5C46 127.948 46.4477 127.5 47 127.5H62C62.5523 127.5 63 127.948 63 128.5C63 129.052 62.5523 129.5 62 129.5H47C46.4477 129.5 46 129.052 46 128.5Z" fill="#E6EAF0"/>
<path fill-rule="evenodd" clip-rule="evenodd" d="M54.5 140C55.0523 140 55.5 140.448 55.5 141V156C55.5 156.552 55.0523 157 54.5 157C53.9477 157 53.5 156.552 53.5 156V141C53.5 140.448 53.9477 140 54.5 140Z" fill="#E6EAF0"/>
<path fill-rule="evenodd" clip-rule="evenodd" d="M46 148.5C46 147.948 46.4477 147.5 47 147.5H62C62.5523 147.5 63 147.948 63 148.5C63 149.052 62.5523 149.5 62 149.5H47C46.4477 149.5 46 149.052 46 148.5Z" fill="#E6EAF0"/>
<path fill-rule="evenodd" clip-rule="evenodd" d="M54.5 160C55.0523 160 55.5 160.448 55.5 161V176C55.5 176.552 55.0523 177 54.5 177C53.9477 177 53.5 176.552 53.5 176V161C53.5 160.448 53.9477 160 54.5 160Z" fill="#E6EAF0"/>
<path fill-rule="evenodd" clip-rule="evenodd" d="M46 168.5C46 167.948 46.4477 167.5 47 167.5H62C62.5523 167.5 63 167.948 63 168.5C63 169.052 62.5523 169.5 62 169.5H47C46.4477 169.5 46 169.052 46 168.5Z" fill="#E6EAF0"/>
<path fill-rule="evenodd" clip-rule="evenodd" d="M54.5 180C55.0523 180 55.5 180.448 55.5 181V196C55.5 196.552 55.0523 197 54.5 197C53.9477 197 53.5 196.552 53.5 196V181C53.5 180.448 53.9477 180 54.5 180Z" fill="#E6EAF0"/>
<path fill-rule="evenodd" clip-rule="evenodd" d="M46 188.5C46 187.948 46.4477 187.5 47 187.5H62C62.5523 187.5 63 187.948 63 188.5C63 189.052 62.5523 189.5 62 189.5H47C46.4477 189.5 46 189.052 46 188.5Z" fill="#E6EAF0"/>
<path fill-rule="evenodd" clip-rule="evenodd" d="M54.5 200C55.0523 200 55.5 200.448 55.5 201V216C55.5 216.552 55.0523 217 54.5 217C53.9477 217 53.5 216.552 53.5 216V201C53.5 200.448 53.9477 200 54.5 200Z" fill="#E6EAF0"/>
<path fill-rule="evenodd" clip-rule="evenodd" d="M46 208.5C46 207.948 46.4477 207.5 47 207.5H62C62.5523 207.5 63 207.948 63 208.5C63 209.052 62.5523 209.5 62 209.5H47C46.4477 209.5 46 209.052 46 208.5Z" fill="#E6EAF0"/>
<path fill-rule="evenodd" clip-rule="evenodd" d="M54.5 220C55.0523 220 55.5 220.448 55.5 221V236C55.5 236.552 55.0523 237 54.5 237C53.9477 237 53.5 236.552 53.5 236V221C53.5 220.448 53.9477 220 54.5 220Z" fill="#E6EAF0"/>
<path fill-rule="evenodd" clip-rule="evenodd" d="M46 228.5C46 227.948 46.4477 227.5 47 227.5H62C62.5523 227.5 63 227.948 63 228.5C63 229.052 62.5523 229.5 62 229.5H47C46.4477 229.5 46 229.052 46 228.5Z" fill="#E6EAF0"/>
<path fill-rule="evenodd" clip-rule="evenodd" d="M54.5 240C55.0523 240 55.5 240.448 55.5 241V256C55.5 256.552 55.0523 257 54.5 257C53.9477 257 53.5 256.552 53.5 256V241C53.5 240.448 53.9477 240 54.5 240Z" fill="#E6EAF0"/>
<path fill-rule="evenodd" clip-rule="evenodd" d="M46 248.5C46 247.948 46.4477 247.5 47 247.5H62C62.5523 247.5 63 247.948 63 248.5C63 249.052 62.5523 249.5 62 249.5H47C46.4477 249.5 46 249.052 46 248.5Z" fill="#E6EAF0"/>
<path fill-rule="evenodd" clip-rule="evenodd" d="M75 0C75.5523 0 76 0.447715 76 1V16C76 16.5523 75.5523 17 75 17C74.4477 17 74 16.5523 74 16V1C74 0.447715 74.4477 0 75 0Z" fill="#E6EAF0"/>
<path fill-rule="evenodd" clip-rule="evenodd" d="M75 260C75.5523 260 76 260.448 76 261V276C76 276.552 75.5523 277 75 277C74.4477 277 74 276.552 74 276V261C74 260.448 74.4477 260 75 260Z" fill="#E6EAF0"/>
<path fill-rule="evenodd" clip-rule="evenodd" d="M66.5 8.5C66.5 7.94772 66.9477 7.5 67.5 7.5L82.5 7.5C83.0523 7.5 83.5 7.94772 83.5 8.5C83.5 9.05228 83.0523 9.5 82.5 9.5L67.5 9.5C66.9477 9.5 66.5 9.05228 66.5 8.5Z" fill="#E6EAF0"/>
<path fill-rule="evenodd" clip-rule="evenodd" d="M66.5 268.5C66.5 267.948 66.9477 267.5 67.5 267.5H82.5C83.0523 267.5 83.5 267.948 83.5 268.5C83.5 269.052 83.0523 269.5 82.5 269.5H67.5C66.9477 269.5 66.5 269.052 66.5 268.5Z" fill="#E6EAF0"/>
<path fill-rule="evenodd" clip-rule="evenodd" d="M75 20C75.5523 20 76 20.4477 76 21V36C76 36.5523 75.5523 37 75 37C74.4477 37 74 36.5523 74 36V21C74 20.4477 74.4477 20 75 20Z" fill="#E6EAF0"/>
<path fill-rule="evenodd" clip-rule="evenodd" d="M75 280C75.5523 280 76 280.448 76 281V296C76 296.552 75.5523 297 75 297C74.4477 297 74 296.552 74 296V281C74 280.448 74.4477 280 75 280Z" fill="#E6EAF0"/>
<path fill-rule="evenodd" clip-rule="evenodd" d="M66.5 28.5C66.5 27.9477 66.9477 27.5 67.5 27.5H82.5C83.0523 27.5 83.5 27.9477 83.5 28.5C83.5 29.0523 83.0523 29.5 82.5 29.5H67.5C66.9477 29.5 66.5 29.0523 66.5 28.5Z" fill="#E6EAF0"/>
<path fill-rule="evenodd" clip-rule="evenodd" d="M66.5 288.5C66.5 287.948 66.9477 287.5 67.5 287.5H82.5C83.0523 287.5 83.5 287.948 83.5 288.5C83.5 289.052 83.0523 289.5 82.5 289.5H67.5C66.9477 289.5 66.5 289.052 66.5 288.5Z" fill="#E6EAF0"/>
<path fill-rule="evenodd" clip-rule="evenodd" d="M75 40C75.5523 40 76 40.4477 76 41V56C76 56.5523 75.5523 57 75 57C74.4477 57 74 56.5523 74 56V41C74 40.4477 74.4477 40 75 40Z" fill="#E6EAF0"/>
<path fill-rule="evenodd" clip-rule="evenodd" d="M75 300C75.5523 300 76 300.448 76 301V316C76 316.552 75.5523 317 75 317C74.4477 317 74 316.552 74 316V301C74 300.448 74.4477 300 75 300Z" fill="#E6EAF0"/>
<path fill-rule="evenodd" clip-rule="evenodd" d="M66.5 48.5C66.5 47.9477 66.9477 47.5 67.5 47.5H82.5C83.0523 47.5 83.5 47.9477 83.5 48.5C83.5 49.0523 83.0523 49.5 82.5 49.5H67.5C66.9477 49.5 66.5 49.0523 66.5 48.5Z" fill="#E6EAF0"/>
<path fill-rule="evenodd" clip-rule="evenodd" d="M66.5 308.5C66.5 307.948 66.9477 307.5 67.5 307.5H82.5C83.0523 307.5 83.5 307.948 83.5 308.5C83.5 309.052 83.0523 309.5 82.5 309.5H67.5C66.9477 309.5 66.5 309.052 66.5 308.5Z" fill="#E6EAF0"/>
<path fill-rule="evenodd" clip-rule="evenodd" d="M75 60C75.5523 60 76 60.4477 76 61V76C76 76.5523 75.5523 77 75 77C74.4477 77 74 76.5523 74 76V61C74 60.4477 74.4477 60 75 60Z" fill="#E6EAF0"/>
<path fill-rule="evenodd" clip-rule="evenodd" d="M75 320C75.5523 320 76 320.448 76 321V336C76 336.552 75.5523 337 75 337C74.4477 337 74 336.552 74 336V321C74 320.448 74.4477 320 75 320Z" fill="#E6EAF0"/>
<path fill-rule="evenodd" clip-rule="evenodd" d="M66.5 68.5C66.5 67.9477 66.9477 67.5 67.5 67.5H82.5C83.0523 67.5 83.5 67.9477 83.5 68.5C83.5 69.0523 83.0523 69.5 82.5 69.5H67.5C66.9477 69.5 66.5 69.0523 66.5 68.5Z" fill="#E6EAF0"/>
<path fill-rule="evenodd" clip-rule="evenodd" d="M66.5 328.5C66.5 327.948 66.9477 327.5 67.5 327.5H82.5C83.0523 327.5 83.5 327.948 83.5 328.5C83.5 329.052 83.0523 329.5 82.5 329.5H67.5C66.9477 329.5 66.5 329.052 66.5 328.5Z" fill="#E6EAF0"/>
<path fill-rule="evenodd" clip-rule="evenodd" d="M75 80C75.5523 80 76 80.4477 76 81V96C76 96.5523 75.5523 97 75 97C74.4477 97 74 96.5523 74 96V81C74 80.4477 74.4477 80 75 80Z" fill="#E6EAF0"/>
<path fill-rule="evenodd" clip-rule="evenodd" d="M75 340C75.5523 340 76 340.448 76 341V356C76 356.552 75.5523 357 75 357C74.4477 357 74 356.552 74 356V341C74 340.448 74.4477 340 75 340Z" fill="#E6EAF0"/>
<path fill-rule="evenodd" clip-rule="evenodd" d="M66.5 88.5C66.5 87.9477 66.9477 87.5 67.5 87.5H82.5C83.0523 87.5 83.5 87.9477 83.5 88.5C83.5 89.0523 83.0523 89.5 82.5 89.5H67.5C66.9477 89.5 66.5 89.0523 66.5 88.5Z" fill="#E6EAF0"/>
<path fill-rule="evenodd" clip-rule="evenodd" d="M66.5 348.5C66.5 347.948 66.9477 347.5 67.5 347.5H82.5C83.0523 347.5 83.5 347.948 83.5 348.5C83.5 349.052 83.0523 349.5 82.5 349.5H67.5C66.9477 349.5 66.5 349.052 66.5 348.5Z" fill="#E6EAF0"/>
<path fill-rule="evenodd" clip-rule="evenodd" d="M75 100C75.5523 100 76 100.448 76 101V116C76 116.552 75.5523 117 75 117C74.4477 117 74 116.552 74 116V101C74 100.448 74.4477 100 75 100Z" fill="#E6EAF0"/>
<path fill-rule="evenodd" clip-rule="evenodd" d="M75 360C75.5523 360 76 360.448 76 361V376C76 376.552 75.5523 377 75 377C74.4477 377 74 376.552 74 376V361C74 360.448 74.4477 360 75 360Z" fill="#E6EAF0"/>
<path fill-rule="evenodd" clip-rule="evenodd" d="M66.5 108.5C66.5 107.948 66.9477 107.5 67.5 107.5H82.5C83.0523 107.5 83.5 107.948 83.5 108.5C83.5 109.052 83.0523 109.5 82.5 109.5H67.5C66.9477 109.5 66.5 109.052 66.5 108.5Z" fill="#E6EAF0"/>
<path fill-rule="evenodd" clip-rule="evenodd" d="M66.5 368.5C66.5 367.948 66.9477 367.5 67.5 367.5H82.5C83.0523 367.5 83.5 367.948 83.5 368.5C83.5 369.052 83.0523 369.5 82.5 369.5H67.5C66.9477 369.5 66.5 369.052 66.5 368.5Z" fill="#E6EAF0"/>
<path fill-rule="evenodd" clip-rule="evenodd" d="M75 120C75.5523 120 76 120.448 76 121V136C76 136.552 75.5523 137 75 137C74.4477 137 74 136.552 74 136V121C74 120.448 74.4477 120 75 120Z" fill="#E6EAF0"/>
<path fill-rule="evenodd" clip-rule="evenodd" d="M66.5 128.5C66.5 127.948 66.9477 127.5 67.5 127.5H82.5C83.0523 127.5 83.5 127.948 83.5 128.5C83.5 129.052 83.0523 129.5 82.5 129.5H67.5C66.9477 129.5 66.5 129.052 66.5 128.5Z" fill="#E6EAF0"/>
<path fill-rule="evenodd" clip-rule="evenodd" d="M75 140C75.5523 140 76 140.448 76 141V156C76 156.552 75.5523 157 75 157C74.4477 157 74 156.552 74 156V141C74 140.448 74.4477 140 75 140Z" fill="#E6EAF0"/>
<path fill-rule="evenodd" clip-rule="evenodd" d="M66.5 148.5C66.5 147.948 66.9477 147.5 67.5 147.5H82.5C83.0523 147.5 83.5 147.948 83.5 148.5C83.5 149.052 83.0523 149.5 82.5 149.5H67.5C66.9477 149.5 66.5 149.052 66.5 148.5Z" fill="#E6EAF0"/>
<path fill-rule="evenodd" clip-rule="evenodd" d="M75 160C75.5523 160 76 160.448 76 161V176C76 176.552 75.5523 177 75 177C74.4477 177 74 176.552 74 176V161C74 160.448 74.4477 160 75 160Z" fill="#E6EAF0"/>
<path fill-rule="evenodd" clip-rule="evenodd" d="M66.5 168.5C66.5 167.948 66.9477 167.5 67.5 167.5H82.5C83.0523 167.5 83.5 167.948 83.5 168.5C83.5 169.052 83.0523 169.5 82.5 169.5H67.5C66.9477 169.5 66.5 169.052 66.5 168.5Z" fill="#E6EAF0"/>
<path fill-rule="evenodd" clip-rule="evenodd" d="M75 180C75.5523 180 76 180.448 76 181V196C76 196.552 75.5523 197 75 197C74.4477 197 74 196.552 74 196V181C74 180.448 74.4477 180 75 180Z" fill="#E6EAF0"/>
<path fill-rule="evenodd" clip-rule="evenodd" d="M66.5 188.5C66.5 187.948 66.9477 187.5 67.5 187.5H82.5C83.0523 187.5 83.5 187.948 83.5 188.5C83.5 189.052 83.0523 189.5 82.5 189.5H67.5C66.9477 189.5 66.5 189.052 66.5 188.5Z" fill="#E6EAF0"/>
<path fill-rule="evenodd" clip-rule="evenodd" d="M75 200C75.5523 200 76 200.448 76 201V216C76 216.552 75.5523 217 75 217C74.4477 217 74 216.552 74 216V201C74 200.448 74.4477 200 75 200Z" fill="#E6EAF0"/>
<path fill-rule="evenodd" clip-rule="evenodd" d="M66.5 208.5C66.5 207.948 66.9477 207.5 67.5 207.5H82.5C83.0523 207.5 83.5 207.948 83.5 208.5C83.5 209.052 83.0523 209.5 82.5 209.5H67.5C66.9477 209.5 66.5 209.052 66.5 208.5Z" fill="#E6EAF0"/>
<path fill-rule="evenodd" clip-rule="evenodd" d="M75 220C75.5523 220 76 220.448 76 221V236C76 236.552 75.5523 237 75 237C74.4477 237 74 236.552 74 236V221C74 220.448 74.4477 220 75 220Z" fill="#E6EAF0"/>
<path fill-rule="evenodd" clip-rule="evenodd" d="M66.5 228.5C66.5 227.948 66.9477 227.5 67.5 227.5H82.5C83.0523 227.5 83.5 227.948 83.5 228.5C83.5 229.052 83.0523 229.5 82.5 229.5H67.5C66.9477 229.5 66.5 229.052 66.5 228.5Z" fill="#E6EAF0"/>
<path fill-rule="evenodd" clip-rule="evenodd" d="M75 240C75.5523 240 76 240.448 76 241V256C76 256.552 75.5523 257 75 257C74.4477 257 74 256.552 74 256V241C74 240.448 74.4477 240 75 240Z" fill="#E6EAF0"/>
<path fill-rule="evenodd" clip-rule="evenodd" d="M66.5 248.5C66.5 247.948 66.9477 247.5 67.5 247.5H82.5C83.0523 247.5 83.5 247.948 83.5 248.5C83.5 249.052 83.0523 249.5 82.5 249.5H67.5C66.9477 249.5 66.5 249.052 66.5 248.5Z" fill="#E6EAF0"/>
<path fill-rule="evenodd" clip-rule="evenodd" d="M95.5 0C96.0523 0 96.5 0.447715 96.5 1V16C96.5 16.5523 96.0523 17 95.5 17C94.9477 17 94.5 16.5523 94.5 16V1C94.5 0.447715 94.9477 0 95.5 0Z" fill="#E6EAF0"/>
<path fill-rule="evenodd" clip-rule="evenodd" d="M95.5 260C96.0523 260 96.5 260.448 96.5 261V276C96.5 276.552 96.0523 277 95.5 277C94.9477 277 94.5 276.552 94.5 276V261C94.5 260.448 94.9477 260 95.5 260Z" fill="#E6EAF0"/>
<path fill-rule="evenodd" clip-rule="evenodd" d="M87 8.5C87 7.94772 87.4477 7.5 88 7.5L103 7.5C103.552 7.5 104 7.94772 104 8.5C104 9.05228 103.552 9.5 103 9.5L88 9.5C87.4477 9.5 87 9.05228 87 8.5Z" fill="#E6EAF0"/>
<path fill-rule="evenodd" clip-rule="evenodd" d="M87 268.5C87 267.948 87.4477 267.5 88 267.5H103C103.552 267.5 104 267.948 104 268.5C104 269.052 103.552 269.5 103 269.5H88C87.4477 269.5 87 269.052 87 268.5Z" fill="#E6EAF0"/>
<path fill-rule="evenodd" clip-rule="evenodd" d="M95.5 20C96.0523 20 96.5 20.4477 96.5 21V36C96.5 36.5523 96.0523 37 95.5 37C94.9477 37 94.5 36.5523 94.5 36V21C94.5 20.4477 94.9477 20 95.5 20Z" fill="#E6EAF0"/>
<path fill-rule="evenodd" clip-rule="evenodd" d="M95.5 280C96.0523 280 96.5 280.448 96.5 281V296C96.5 296.552 96.0523 297 95.5 297C94.9477 297 94.5 296.552 94.5 296V281C94.5 280.448 94.9477 280 95.5 280Z" fill="#E6EAF0"/>
<path fill-rule="evenodd" clip-rule="evenodd" d="M87 28.5C87 27.9477 87.4477 27.5 88 27.5H103C103.552 27.5 104 27.9477 104 28.5C104 29.0523 103.552 29.5 103 29.5H88C87.4477 29.5 87 29.0523 87 28.5Z" fill="#E6EAF0"/>
<path fill-rule="evenodd" clip-rule="evenodd" d="M87 288.5C87 287.948 87.4477 287.5 88 287.5H103C103.552 287.5 104 287.948 104 288.5C104 289.052 103.552 289.5 103 289.5H88C87.4477 289.5 87 289.052 87 288.5Z" fill="#E6EAF0"/>
<path fill-rule="evenodd" clip-rule="evenodd" d="M95.5 40C96.0523 40 96.5 40.4477 96.5 41V56C96.5 56.5523 96.0523 57 95.5 57C94.9477 57 94.5 56.5523 94.5 56V41C94.5 40.4477 94.9477 40 95.5 40Z" fill="#E6EAF0"/>
<path fill-rule="evenodd" clip-rule="evenodd" d="M95.5 300C96.0523 300 96.5 300.448 96.5 301V316C96.5 316.552 96.0523 317 95.5 317C94.9477 317 94.5 316.552 94.5 316V301C94.5 300.448 94.9477 300 95.5 300Z" fill="#E6EAF0"/>
<path fill-rule="evenodd" clip-rule="evenodd" d="M87 48.5C87 47.9477 87.4477 47.5 88 47.5H103C103.552 47.5 104 47.9477 104 48.5C104 49.0523 103.552 49.5 103 49.5H88C87.4477 49.5 87 49.0523 87 48.5Z" fill="#E6EAF0"/>
<path fill-rule="evenodd" clip-rule="evenodd" d="M87 308.5C87 307.948 87.4477 307.5 88 307.5H103C103.552 307.5 104 307.948 104 308.5C104 309.052 103.552 309.5 103 309.5H88C87.4477 309.5 87 309.052 87 308.5Z" fill="#E6EAF0"/>
<path fill-rule="evenodd" clip-rule="evenodd" d="M95.5 60C96.0523 60 96.5 60.4477 96.5 61V76C96.5 76.5523 96.0523 77 95.5 77C94.9477 77 94.5 76.5523 94.5 76V61C94.5 60.4477 94.9477 60 95.5 60Z" fill="#E6EAF0"/>
<path fill-rule="evenodd" clip-rule="evenodd" d="M95.5 320C96.0523 320 96.5 320.448 96.5 321V336C96.5 336.552 96.0523 337 95.5 337C94.9477 337 94.5 336.552 94.5 336V321C94.5 320.448 94.9477 320 95.5 320Z" fill="#E6EAF0"/>
<path fill-rule="evenodd" clip-rule="evenodd" d="M87 68.5C87 67.9477 87.4477 67.5 88 67.5H103C103.552 67.5 104 67.9477 104 68.5C104 69.0523 103.552 69.5 103 69.5H88C87.4477 69.5 87 69.0523 87 68.5Z" fill="#E6EAF0"/>
<path fill-rule="evenodd" clip-rule="evenodd" d="M87 328.5C87 327.948 87.4477 327.5 88 327.5H103C103.552 327.5 104 327.948 104 328.5C104 329.052 103.552 329.5 103 329.5H88C87.4477 329.5 87 329.052 87 328.5Z" fill="#E6EAF0"/>
<path fill-rule="evenodd" clip-rule="evenodd" d="M95.5 80C96.0523 80 96.5 80.4477 96.5 81V96C96.5 96.5523 96.0523 97 95.5 97C94.9477 97 94.5 96.5523 94.5 96V81C94.5 80.4477 94.9477 80 95.5 80Z" fill="#E6EAF0"/>
<path fill-rule="evenodd" clip-rule="evenodd" d="M95.5 340C96.0523 340 96.5 340.448 96.5 341V356C96.5 356.552 96.0523 357 95.5 357C94.9477 357 94.5 356.552 94.5 356V341C94.5 340.448 94.9477 340 95.5 340Z" fill="#E6EAF0"/>
<path fill-rule="evenodd" clip-rule="evenodd" d="M87 88.5C87 87.9477 87.4477 87.5 88 87.5H103C103.552 87.5 104 87.9477 104 88.5C104 89.0523 103.552 89.5 103 89.5H88C87.4477 89.5 87 89.0523 87 88.5Z" fill="#E6EAF0"/>
<path fill-rule="evenodd" clip-rule="evenodd" d="M87 348.5C87 347.948 87.4477 347.5 88 347.5H103C103.552 347.5 104 347.948 104 348.5C104 349.052 103.552 349.5 103 349.5H88C87.4477 349.5 87 349.052 87 348.5Z" fill="#E6EAF0"/>
<path fill-rule="evenodd" clip-rule="evenodd" d="M95.5 100C96.0523 100 96.5 100.448 96.5 101V116C96.5 116.552 96.0523 117 95.5 117C94.9477 117 94.5 116.552 94.5 116V101C94.5 100.448 94.9477 100 95.5 100Z" fill="#E6EAF0"/>
<path fill-rule="evenodd" clip-rule="evenodd" d="M95.5 360C96.0523 360 96.5 360.448 96.5 361V376C96.5 376.552 96.0523 377 95.5 377C94.9477 377 94.5 376.552 94.5 376V361C94.5 360.448 94.9477 360 95.5 360Z" fill="#E6EAF0"/>
<path fill-rule="evenodd" clip-rule="evenodd" d="M87 108.5C87 107.948 87.4477 107.5 88 107.5H103C103.552 107.5 104 107.948 104 108.5C104 109.052 103.552 109.5 103 109.5H88C87.4477 109.5 87 109.052 87 108.5Z" fill="#E6EAF0"/>
<path fill-rule="evenodd" clip-rule="evenodd" d="M87 368.5C87 367.948 87.4477 367.5 88 367.5H103C103.552 367.5 104 367.948 104 368.5C104 369.052 103.552 369.5 103 369.5H88C87.4477 369.5 87 369.052 87 368.5Z" fill="#E6EAF0"/>
<path fill-rule="evenodd" clip-rule="evenodd" d="M95.5 120C96.0523 120 96.5 120.448 96.5 121V136C96.5 136.552 96.0523 137 95.5 137C94.9477 137 94.5 136.552 94.5 136V121C94.5 120.448 94.9477 120 95.5 120Z" fill="#E6EAF0"/>
<path fill-rule="evenodd" clip-rule="evenodd" d="M87 128.5C87 127.948 87.4477 127.5 88 127.5H103C103.552 127.5 104 127.948 104 128.5C104 129.052 103.552 129.5 103 129.5H88C87.4477 129.5 87 129.052 87 128.5Z" fill="#E6EAF0"/>
<path fill-rule="evenodd" clip-rule="evenodd" d="M95.5 140C96.0523 140 96.5 140.448 96.5 141V156C96.5 156.552 96.0523 157 95.5 157C94.9477 157 94.5 156.552 94.5 156V141C94.5 140.448 94.9477 140 95.5 140Z" fill="#E6EAF0"/>
<path fill-rule="evenodd" clip-rule="evenodd" d="M87 148.5C87 147.948 87.4477 147.5 88 147.5H103C103.552 147.5 104 147.948 104 148.5C104 149.052 103.552 149.5 103 149.5H88C87.4477 149.5 87 149.052 87 148.5Z" fill="#E6EAF0"/>
<path fill-rule="evenodd" clip-rule="evenodd" d="M95.5 160C96.0523 160 96.5 160.448 96.5 161V176C96.5 176.552 96.0523 177 95.5 177C94.9477 177 94.5 176.552 94.5 176V161C94.5 160.448 94.9477 160 95.5 160Z" fill="#E6EAF0"/>
<path fill-rule="evenodd" clip-rule="evenodd" d="M87 168.5C87 167.948 87.4477 167.5 88 167.5H103C103.552 167.5 104 167.948 104 168.5C104 169.052 103.552 169.5 103 169.5H88C87.4477 169.5 87 169.052 87 168.5Z" fill="#E6EAF0"/>
<path fill-rule="evenodd" clip-rule="evenodd" d="M95.5 180C96.0523 180 96.5 180.448 96.5 181V196C96.5 196.552 96.0523 197 95.5 197C94.9477 197 94.5 196.552 94.5 196V181C94.5 180.448 94.9477 180 95.5 180Z" fill="#E6EAF0"/>
<path fill-rule="evenodd" clip-rule="evenodd" d="M87 188.5C87 187.948 87.4477 187.5 88 187.5H103C103.552 187.5 104 187.948 104 188.5C104 189.052 103.552 189.5 103 189.5H88C87.4477 189.5 87 189.052 87 188.5Z" fill="#E6EAF0"/>
<path fill-rule="evenodd" clip-rule="evenodd" d="M95.5 200C96.0523 200 96.5 200.448 96.5 201V216C96.5 216.552 96.0523 217 95.5 217C94.9477 217 94.5 216.552 94.5 216V201C94.5 200.448 94.9477 200 95.5 200Z" fill="#E6EAF0"/>
<path fill-rule="evenodd" clip-rule="evenodd" d="M87 208.5C87 207.948 87.4477 207.5 88 207.5H103C103.552 207.5 104 207.948 104 208.5C104 209.052 103.552 209.5 103 209.5H88C87.4477 209.5 87 209.052 87 208.5Z" fill="#E6EAF0"/>
<path fill-rule="evenodd" clip-rule="evenodd" d="M95.5 220C96.0523 220 96.5 220.448 96.5 221V236C96.5 236.552 96.0523 237 95.5 237C94.9477 237 94.5 236.552 94.5 236V221C94.5 220.448 94.9477 220 95.5 220Z" fill="#E6EAF0"/>
<path fill-rule="evenodd" clip-rule="evenodd" d="M87 228.5C87 227.948 87.4477 227.5 88 227.5H103C103.552 227.5 104 227.948 104 228.5C104 229.052 103.552 229.5 103 229.5H88C87.4477 229.5 87 229.052 87 228.5Z" fill="#E6EAF0"/>
<path fill-rule="evenodd" clip-rule="evenodd" d="M95.5 240C96.0523 240 96.5 240.448 96.5 241V256C96.5 256.552 96.0523 257 95.5 257C94.9477 257 94.5 256.552 94.5 256V241C94.5 240.448 94.9477 240 95.5 240Z" fill="#E6EAF0"/>
<path fill-rule="evenodd" clip-rule="evenodd" d="M87 248.5C87 247.948 87.4477 247.5 88 247.5H103C103.552 247.5 104 247.948 104 248.5C104 249.052 103.552 249.5 103 249.5H88C87.4477 249.5 87 249.052 87 248.5Z" fill="#E6EAF0"/>
<path fill-rule="evenodd" clip-rule="evenodd" d="M116 0C116.552 0 117 0.447715 117 1V16C117 16.5523 116.552 17 116 17C115.448 17 115 16.5523 115 16V1C115 0.447715 115.448 0 116 0Z" fill="#E6EAF0"/>
<path fill-rule="evenodd" clip-rule="evenodd" d="M116 260C116.552 260 117 260.448 117 261V276C117 276.552 116.552 277 116 277C115.448 277 115 276.552 115 276V261C115 260.448 115.448 260 116 260Z" fill="#E6EAF0"/>
<path fill-rule="evenodd" clip-rule="evenodd" d="M107.5 8.5C107.5 7.94772 107.948 7.5 108.5 7.5L123.5 7.5C124.052 7.5 124.5 7.94772 124.5 8.5C124.5 9.05228 124.052 9.5 123.5 9.5L108.5 9.5C107.948 9.5 107.5 9.05228 107.5 8.5Z" fill="#E6EAF0"/>
<path fill-rule="evenodd" clip-rule="evenodd" d="M107.5 268.5C107.5 267.948 107.948 267.5 108.5 267.5H123.5C124.052 267.5 124.5 267.948 124.5 268.5C124.5 269.052 124.052 269.5 123.5 269.5H108.5C107.948 269.5 107.5 269.052 107.5 268.5Z" fill="#E6EAF0"/>
<path fill-rule="evenodd" clip-rule="evenodd" d="M116 20C116.552 20 117 20.4477 117 21V36C117 36.5523 116.552 37 116 37C115.448 37 115 36.5523 115 36V21C115 20.4477 115.448 20 116 20Z" fill="#E6EAF0"/>
<path fill-rule="evenodd" clip-rule="evenodd" d="M116 280C116.552 280 117 280.448 117 281V296C117 296.552 116.552 297 116 297C115.448 297 115 296.552 115 296V281C115 280.448 115.448 280 116 280Z" fill="#E6EAF0"/>
<path fill-rule="evenodd" clip-rule="evenodd" d="M107.5 28.5C107.5 27.9477 107.948 27.5 108.5 27.5H123.5C124.052 27.5 124.5 27.9477 124.5 28.5C124.5 29.0523 124.052 29.5 123.5 29.5H108.5C107.948 29.5 107.5 29.0523 107.5 28.5Z" fill="#E6EAF0"/>
<path fill-rule="evenodd" clip-rule="evenodd" d="M107.5 288.5C107.5 287.948 107.948 287.5 108.5 287.5H123.5C124.052 287.5 124.5 287.948 124.5 288.5C124.5 289.052 124.052 289.5 123.5 289.5H108.5C107.948 289.5 107.5 289.052 107.5 288.5Z" fill="#E6EAF0"/>
<path fill-rule="evenodd" clip-rule="evenodd" d="M116 40C116.552 40 117 40.4477 117 41V56C117 56.5523 116.552 57 116 57C115.448 57 115 56.5523 115 56V41C115 40.4477 115.448 40 116 40Z" fill="#E6EAF0"/>
<path fill-rule="evenodd" clip-rule="evenodd" d="M116 300C116.552 300 117 300.448 117 301V316C117 316.552 116.552 317 116 317C115.448 317 115 316.552 115 316V301C115 300.448 115.448 300 116 300Z" fill="#E6EAF0"/>
<path fill-rule="evenodd" clip-rule="evenodd" d="M107.5 48.5C107.5 47.9477 107.948 47.5 108.5 47.5H123.5C124.052 47.5 124.5 47.9477 124.5 48.5C124.5 49.0523 124.052 49.5 123.5 49.5H108.5C107.948 49.5 107.5 49.0523 107.5 48.5Z" fill="#E6EAF0"/>
<path fill-rule="evenodd" clip-rule="evenodd" d="M107.5 308.5C107.5 307.948 107.948 307.5 108.5 307.5H123.5C124.052 307.5 124.5 307.948 124.5 308.5C124.5 309.052 124.052 309.5 123.5 309.5H108.5C107.948 309.5 107.5 309.052 107.5 308.5Z" fill="#E6EAF0"/>
<path fill-rule="evenodd" clip-rule="evenodd" d="M116 60C116.552 60 117 60.4477 117 61V76C117 76.5523 116.552 77 116 77C115.448 77 115 76.5523 115 76V61C115 60.4477 115.448 60 116 60Z" fill="#E6EAF0"/>
<path fill-rule="evenodd" clip-rule="evenodd" d="M116 320C116.552 320 117 320.448 117 321V336C117 336.552 116.552 337 116 337C115.448 337 115 336.552 115 336V321C115 320.448 115.448 320 116 320Z" fill="#E6EAF0"/>
<path fill-rule="evenodd" clip-rule="evenodd" d="M107.5 68.5C107.5 67.9477 107.948 67.5 108.5 67.5H123.5C124.052 67.5 124.5 67.9477 124.5 68.5C124.5 69.0523 124.052 69.5 123.5 69.5H108.5C107.948 69.5 107.5 69.0523 107.5 68.5Z" fill="#E6EAF0"/>
<path fill-rule="evenodd" clip-rule="evenodd" d="M107.5 328.5C107.5 327.948 107.948 327.5 108.5 327.5H123.5C124.052 327.5 124.5 327.948 124.5 328.5C124.5 329.052 124.052 329.5 123.5 329.5H108.5C107.948 329.5 107.5 329.052 107.5 328.5Z" fill="#E6EAF0"/>
<path fill-rule="evenodd" clip-rule="evenodd" d="M116 80C116.552 80 117 80.4477 117 81V96C117 96.5523 116.552 97 116 97C115.448 97 115 96.5523 115 96V81C115 80.4477 115.448 80 116 80Z" fill="#E6EAF0"/>
<path fill-rule="evenodd" clip-rule="evenodd" d="M116 340C116.552 340 117 340.448 117 341V356C117 356.552 116.552 357 116 357C115.448 357 115 356.552 115 356V341C115 340.448 115.448 340 116 340Z" fill="#E6EAF0"/>
<path fill-rule="evenodd" clip-rule="evenodd" d="M107.5 88.5C107.5 87.9477 107.948 87.5 108.5 87.5H123.5C124.052 87.5 124.5 87.9477 124.5 88.5C124.5 89.0523 124.052 89.5 123.5 89.5H108.5C107.948 89.5 107.5 89.0523 107.5 88.5Z" fill="#E6EAF0"/>
<path fill-rule="evenodd" clip-rule="evenodd" d="M107.5 348.5C107.5 347.948 107.948 347.5 108.5 347.5H123.5C124.052 347.5 124.5 347.948 124.5 348.5C124.5 349.052 124.052 349.5 123.5 349.5H108.5C107.948 349.5 107.5 349.052 107.5 348.5Z" fill="#E6EAF0"/>
<path fill-rule="evenodd" clip-rule="evenodd" d="M116 100C116.552 100 117 100.448 117 101V116C117 116.552 116.552 117 116 117C115.448 117 115 116.552 115 116V101C115 100.448 115.448 100 116 100Z" fill="#E6EAF0"/>
<path fill-rule="evenodd" clip-rule="evenodd" d="M116 360C116.552 360 117 360.448 117 361V376C117 376.552 116.552 377 116 377C115.448 377 115 376.552 115 376V361C115 360.448 115.448 360 116 360Z" fill="#E6EAF0"/>
<path fill-rule="evenodd" clip-rule="evenodd" d="M107.5 108.5C107.5 107.948 107.948 107.5 108.5 107.5H123.5C124.052 107.5 124.5 107.948 124.5 108.5C124.5 109.052 124.052 109.5 123.5 109.5H108.5C107.948 109.5 107.5 109.052 107.5 108.5Z" fill="#E6EAF0"/>
<path fill-rule="evenodd" clip-rule="evenodd" d="M107.5 368.5C107.5 367.948 107.948 367.5 108.5 367.5H123.5C124.052 367.5 124.5 367.948 124.5 368.5C124.5 369.052 124.052 369.5 123.5 369.5H108.5C107.948 369.5 107.5 369.052 107.5 368.5Z" fill="#E6EAF0"/>
<path fill-rule="evenodd" clip-rule="evenodd" d="M116 120C116.552 120 117 120.448 117 121V136C117 136.552 116.552 137 116 137C115.448 137 115 136.552 115 136V121C115 120.448 115.448 120 116 120Z" fill="#E6EAF0"/>
<path fill-rule="evenodd" clip-rule="evenodd" d="M107.5 128.5C107.5 127.948 107.948 127.5 108.5 127.5H123.5C124.052 127.5 124.5 127.948 124.5 128.5C124.5 129.052 124.052 129.5 123.5 129.5H108.5C107.948 129.5 107.5 129.052 107.5 128.5Z" fill="#E6EAF0"/>
<path fill-rule="evenodd" clip-rule="evenodd" d="M116 140C116.552 140 117 140.448 117 141V156C117 156.552 116.552 157 116 157C115.448 157 115 156.552 115 156V141C115 140.448 115.448 140 116 140Z" fill="#E6EAF0"/>
<path fill-rule="evenodd" clip-rule="evenodd" d="M107.5 148.5C107.5 147.948 107.948 147.5 108.5 147.5H123.5C124.052 147.5 124.5 147.948 124.5 148.5C124.5 149.052 124.052 149.5 123.5 149.5H108.5C107.948 149.5 107.5 149.052 107.5 148.5Z" fill="#E6EAF0"/>
<path fill-rule="evenodd" clip-rule="evenodd" d="M116 160C116.552 160 117 160.448 117 161V176C117 176.552 116.552 177 116 177C115.448 177 115 176.552 115 176V161C115 160.448 115.448 160 116 160Z" fill="#E6EAF0"/>
<path fill-rule="evenodd" clip-rule="evenodd" d="M107.5 168.5C107.5 167.948 107.948 167.5 108.5 167.5H123.5C124.052 167.5 124.5 167.948 124.5 168.5C124.5 169.052 124.052 169.5 123.5 169.5H108.5C107.948 169.5 107.5 169.052 107.5 168.5Z" fill="#E6EAF0"/>
<path fill-rule="evenodd" clip-rule="evenodd" d="M116 180C116.552 180 117 180.448 117 181V196C117 196.552 116.552 197 116 197C115.448 197 115 196.552 115 196V181C115 180.448 115.448 180 116 180Z" fill="#E6EAF0"/>
<path fill-rule="evenodd" clip-rule="evenodd" d="M107.5 188.5C107.5 187.948 107.948 187.5 108.5 187.5H123.5C124.052 187.5 124.5 187.948 124.5 188.5C124.5 189.052 124.052 189.5 123.5 189.5H108.5C107.948 189.5 107.5 189.052 107.5 188.5Z" fill="#E6EAF0"/>
<path fill-rule="evenodd" clip-rule="evenodd" d="M116 200C116.552 200 117 200.448 117 201V216C117 216.552 116.552 217 116 217C115.448 217 115 216.552 115 216V201C115 200.448 115.448 200 116 200Z" fill="#E6EAF0"/>
<path fill-rule="evenodd" clip-rule="evenodd" d="M107.5 208.5C107.5 207.948 107.948 207.5 108.5 207.5H123.5C124.052 207.5 124.5 207.948 124.5 208.5C124.5 209.052 124.052 209.5 123.5 209.5H108.5C107.948 209.5 107.5 209.052 107.5 208.5Z" fill="#E6EAF0"/>
<path fill-rule="evenodd" clip-rule="evenodd" d="M116 220C116.552 220 117 220.448 117 221V236C117 236.552 116.552 237 116 237C115.448 237 115 236.552 115 236V221C115 220.448 115.448 220 116 220Z" fill="#E6EAF0"/>
<path fill-rule="evenodd" clip-rule="evenodd" d="M107.5 228.5C107.5 227.948 107.948 227.5 108.5 227.5H123.5C124.052 227.5 124.5 227.948 124.5 228.5C124.5 229.052 124.052 229.5 123.5 229.5H108.5C107.948 229.5 107.5 229.052 107.5 228.5Z" fill="#E6EAF0"/>
<path fill-rule="evenodd" clip-rule="evenodd" d="M116 240C116.552 240 117 240.448 117 241V256C117 256.552 116.552 257 116 257C115.448 257 115 256.552 115 256V241C115 240.448 115.448 240 116 240Z" fill="#E6EAF0"/>
<path fill-rule="evenodd" clip-rule="evenodd" d="M107.5 248.5C107.5 247.948 107.948 247.5 108.5 247.5H123.5C124.052 247.5 124.5 247.948 124.5 248.5C124.5 249.052 124.052 249.5 123.5 249.5H108.5C107.948 249.5 107.5 249.052 107.5 248.5Z" fill="#E6EAF0"/>
<path fill-rule="evenodd" clip-rule="evenodd" d="M136.5 0C137.052 0 137.5 0.447715 137.5 1V16C137.5 16.5523 137.052 17 136.5 17C135.948 17 135.5 16.5523 135.5 16V1C135.5 0.447715 135.948 0 136.5 0Z" fill="#E6EAF0"/>
<path fill-rule="evenodd" clip-rule="evenodd" d="M136.5 260C137.052 260 137.5 260.448 137.5 261V276C137.5 276.552 137.052 277 136.5 277C135.948 277 135.5 276.552 135.5 276V261C135.5 260.448 135.948 260 136.5 260Z" fill="#E6EAF0"/>
<path fill-rule="evenodd" clip-rule="evenodd" d="M128 8.5C128 7.94772 128.448 7.5 129 7.5L144 7.5C144.552 7.5 145 7.94772 145 8.5C145 9.05228 144.552 9.5 144 9.5L129 9.5C128.448 9.5 128 9.05228 128 8.5Z" fill="#E6EAF0"/>
<path fill-rule="evenodd" clip-rule="evenodd" d="M128 268.5C128 267.948 128.448 267.5 129 267.5H144C144.552 267.5 145 267.948 145 268.5C145 269.052 144.552 269.5 144 269.5H129C128.448 269.5 128 269.052 128 268.5Z" fill="#E6EAF0"/>
<path fill-rule="evenodd" clip-rule="evenodd" d="M136.5 20C137.052 20 137.5 20.4477 137.5 21V36C137.5 36.5523 137.052 37 136.5 37C135.948 37 135.5 36.5523 135.5 36V21C135.5 20.4477 135.948 20 136.5 20Z" fill="#E6EAF0"/>
<path fill-rule="evenodd" clip-rule="evenodd" d="M136.5 280C137.052 280 137.5 280.448 137.5 281V296C137.5 296.552 137.052 297 136.5 297C135.948 297 135.5 296.552 135.5 296V281C135.5 280.448 135.948 280 136.5 280Z" fill="#E6EAF0"/>
<path fill-rule="evenodd" clip-rule="evenodd" d="M128 28.5C128 27.9477 128.448 27.5 129 27.5H144C144.552 27.5 145 27.9477 145 28.5C145 29.0523 144.552 29.5 144 29.5H129C128.448 29.5 128 29.0523 128 28.5Z" fill="#E6EAF0"/>
<path fill-rule="evenodd" clip-rule="evenodd" d="M128 288.5C128 287.948 128.448 287.5 129 287.5H144C144.552 287.5 145 287.948 145 288.5C145 289.052 144.552 289.5 144 289.5H129C128.448 289.5 128 289.052 128 288.5Z" fill="#E6EAF0"/>
<path fill-rule="evenodd" clip-rule="evenodd" d="M136.5 40C137.052 40 137.5 40.4477 137.5 41V56C137.5 56.5523 137.052 57 136.5 57C135.948 57 135.5 56.5523 135.5 56V41C135.5 40.4477 135.948 40 136.5 40Z" fill="#E6EAF0"/>
<path fill-rule="evenodd" clip-rule="evenodd" d="M136.5 300C137.052 300 137.5 300.448 137.5 301V316C137.5 316.552 137.052 317 136.5 317C135.948 317 135.5 316.552 135.5 316V301C135.5 300.448 135.948 300 136.5 300Z" fill="#E6EAF0"/>
<path fill-rule="evenodd" clip-rule="evenodd" d="M128 48.5C128 47.9477 128.448 47.5 129 47.5H144C144.552 47.5 145 47.9477 145 48.5C145 49.0523 144.552 49.5 144 49.5H129C128.448 49.5 128 49.0523 128 48.5Z" fill="#E6EAF0"/>
<path fill-rule="evenodd" clip-rule="evenodd" d="M128 308.5C128 307.948 128.448 307.5 129 307.5H144C144.552 307.5 145 307.948 145 308.5C145 309.052 144.552 309.5 144 309.5H129C128.448 309.5 128 309.052 128 308.5Z" fill="#E6EAF0"/>
<path fill-rule="evenodd" clip-rule="evenodd" d="M136.5 60C137.052 60 137.5 60.4477 137.5 61V76C137.5 76.5523 137.052 77 136.5 77C135.948 77 135.5 76.5523 135.5 76V61C135.5 60.4477 135.948 60 136.5 60Z" fill="#E6EAF0"/>
<path fill-rule="evenodd" clip-rule="evenodd" d="M136.5 320C137.052 320 137.5 320.448 137.5 321V336C137.5 336.552 137.052 337 136.5 337C135.948 337 135.5 336.552 135.5 336V321C135.5 320.448 135.948 320 136.5 320Z" fill="#E6EAF0"/>
<path fill-rule="evenodd" clip-rule="evenodd" d="M128 68.5C128 67.9477 128.448 67.5 129 67.5H144C144.552 67.5 145 67.9477 145 68.5C145 69.0523 144.552 69.5 144 69.5H129C128.448 69.5 128 69.0523 128 68.5Z" fill="#E6EAF0"/>
<path fill-rule="evenodd" clip-rule="evenodd" d="M128 328.5C128 327.948 128.448 327.5 129 327.5H144C144.552 327.5 145 327.948 145 328.5C145 329.052 144.552 329.5 144 329.5H129C128.448 329.5 128 329.052 128 328.5Z" fill="#E6EAF0"/>
<path fill-rule="evenodd" clip-rule="evenodd" d="M136.5 80C137.052 80 137.5 80.4477 137.5 81V96C137.5 96.5523 137.052 97 136.5 97C135.948 97 135.5 96.5523 135.5 96V81C135.5 80.4477 135.948 80 136.5 80Z" fill="#E6EAF0"/>
<path fill-rule="evenodd" clip-rule="evenodd" d="M136.5 340C137.052 340 137.5 340.448 137.5 341V356C137.5 356.552 137.052 357 136.5 357C135.948 357 135.5 356.552 135.5 356V341C135.5 340.448 135.948 340 136.5 340Z" fill="#E6EAF0"/>
<path fill-rule="evenodd" clip-rule="evenodd" d="M128 88.5C128 87.9477 128.448 87.5 129 87.5H144C144.552 87.5 145 87.9477 145 88.5C145 89.0523 144.552 89.5 144 89.5H129C128.448 89.5 128 89.0523 128 88.5Z" fill="#E6EAF0"/>
<path fill-rule="evenodd" clip-rule="evenodd" d="M128 348.5C128 347.948 128.448 347.5 129 347.5H144C144.552 347.5 145 347.948 145 348.5C145 349.052 144.552 349.5 144 349.5H129C128.448 349.5 128 349.052 128 348.5Z" fill="#E6EAF0"/>
<path fill-rule="evenodd" clip-rule="evenodd" d="M136.5 100C137.052 100 137.5 100.448 137.5 101V116C137.5 116.552 137.052 117 136.5 117C135.948 117 135.5 116.552 135.5 116V101C135.5 100.448 135.948 100 136.5 100Z" fill="#E6EAF0"/>
<path fill-rule="evenodd" clip-rule="evenodd" d="M136.5 360C137.052 360 137.5 360.448 137.5 361V376C137.5 376.552 137.052 377 136.5 377C135.948 377 135.5 376.552 135.5 376V361C135.5 360.448 135.948 360 136.5 360Z" fill="#E6EAF0"/>
<path fill-rule="evenodd" clip-rule="evenodd" d="M128 108.5C128 107.948 128.448 107.5 129 107.5H144C144.552 107.5 145 107.948 145 108.5C145 109.052 144.552 109.5 144 109.5H129C128.448 109.5 128 109.052 128 108.5Z" fill="#E6EAF0"/>
<path fill-rule="evenodd" clip-rule="evenodd" d="M128 368.5C128 367.948 128.448 367.5 129 367.5H144C144.552 367.5 145 367.948 145 368.5C145 369.052 144.552 369.5 144 369.5H129C128.448 369.5 128 369.052 128 368.5Z" fill="#E6EAF0"/>
<path fill-rule="evenodd" clip-rule="evenodd" d="M136.5 120C137.052 120 137.5 120.448 137.5 121V136C137.5 136.552 137.052 137 136.5 137C135.948 137 135.5 136.552 135.5 136V121C135.5 120.448 135.948 120 136.5 120Z" fill="#E6EAF0"/>
<path fill-rule="evenodd" clip-rule="evenodd" d="M128 128.5C128 127.948 128.448 127.5 129 127.5H144C144.552 127.5 145 127.948 145 128.5C145 129.052 144.552 129.5 144 129.5H129C128.448 129.5 128 129.052 128 128.5Z" fill="#E6EAF0"/>
<path fill-rule="evenodd" clip-rule="evenodd" d="M136.5 140C137.052 140 137.5 140.448 137.5 141V156C137.5 156.552 137.052 157 136.5 157C135.948 157 135.5 156.552 135.5 156V141C135.5 140.448 135.948 140 136.5 140Z" fill="#E6EAF0"/>
<path fill-rule="evenodd" clip-rule="evenodd" d="M128 148.5C128 147.948 128.448 147.5 129 147.5H144C144.552 147.5 145 147.948 145 148.5C145 149.052 144.552 149.5 144 149.5H129C128.448 149.5 128 149.052 128 148.5Z" fill="#E6EAF0"/>
<path fill-rule="evenodd" clip-rule="evenodd" d="M136.5 160C137.052 160 137.5 160.448 137.5 161V176C137.5 176.552 137.052 177 136.5 177C135.948 177 135.5 176.552 135.5 176V161C135.5 160.448 135.948 160 136.5 160Z" fill="#E6EAF0"/>
<path fill-rule="evenodd" clip-rule="evenodd" d="M128 168.5C128 167.948 128.448 167.5 129 167.5H144C144.552 167.5 145 167.948 145 168.5C145 169.052 144.552 169.5 144 169.5H129C128.448 169.5 128 169.052 128 168.5Z" fill="#E6EAF0"/>
<path fill-rule="evenodd" clip-rule="evenodd" d="M136.5 180C137.052 180 137.5 180.448 137.5 181V196C137.5 196.552 137.052 197 136.5 197C135.948 197 135.5 196.552 135.5 196V181C135.5 180.448 135.948 180 136.5 180Z" fill="#E6EAF0"/>
<path fill-rule="evenodd" clip-rule="evenodd" d="M128 188.5C128 187.948 128.448 187.5 129 187.5H144C144.552 187.5 145 187.948 145 188.5C145 189.052 144.552 189.5 144 189.5H129C128.448 189.5 128 189.052 128 188.5Z" fill="#E6EAF0"/>
<path fill-rule="evenodd" clip-rule="evenodd" d="M136.5 200C137.052 200 137.5 200.448 137.5 201V216C137.5 216.552 137.052 217 136.5 217C135.948 217 135.5 216.552 135.5 216V201C135.5 200.448 135.948 200 136.5 200Z" fill="#E6EAF0"/>
<path fill-rule="evenodd" clip-rule="evenodd" d="M128 208.5C128 207.948 128.448 207.5 129 207.5H144C144.552 207.5 145 207.948 145 208.5C145 209.052 144.552 209.5 144 209.5H129C128.448 209.5 128 209.052 128 208.5Z" fill="#E6EAF0"/>
<path fill-rule="evenodd" clip-rule="evenodd" d="M136.5 220C137.052 220 137.5 220.448 137.5 221V236C137.5 236.552 137.052 237 136.5 237C135.948 237 135.5 236.552 135.5 236V221C135.5 220.448 135.948 220 136.5 220Z" fill="#E6EAF0"/>
<path fill-rule="evenodd" clip-rule="evenodd" d="M128 228.5C128 227.948 128.448 227.5 129 227.5H144C144.552 227.5 145 227.948 145 228.5C145 229.052 144.552 229.5 144 229.5H129C128.448 229.5 128 229.052 128 228.5Z" fill="#E6EAF0"/>
<path fill-rule="evenodd" clip-rule="evenodd" d="M136.5 240C137.052 240 137.5 240.448 137.5 241V256C137.5 256.552 137.052 257 136.5 257C135.948 257 135.5 256.552 135.5 256V241C135.5 240.448 135.948 240 136.5 240Z" fill="#E6EAF0"/>
<path fill-rule="evenodd" clip-rule="evenodd" d="M128 248.5C128 247.948 128.448 247.5 129 247.5H144C144.552 247.5 145 247.948 145 248.5C145 249.052 144.552 249.5 144 249.5H129C128.448 249.5 128 249.052 128 248.5Z" fill="#E6EAF0"/>
</g>
<defs>
<clipPath id="clip0_47_187">
<rect width="264" height="372" fill="white" transform="translate(-118)"/>
</clipPath>
</defs>
</svg>
