<svg width="85" height="83" viewBox="0 0 85 83" fill="none" xmlns="http://www.w3.org/2000/svg">
<path d="M85 40.9561C85 63.5756 81.8888 82.7922 59.5 82.7922C37.1112 82.7922 0 63.5756 0 40.9561C0 18.3367 22.0728 0 44.4615 0C66.8503 0 85 18.3367 85 40.9561Z" fill="#F3F2FD"/>
<path d="M20.9855 34.2694C21.1686 34.0765 21.3713 33.9033 21.5905 33.7525C22.4028 33.3208 23.2293 32.9175 24.053 32.5113C24.5927 32.2443 24.9505 32.3721 25.2033 32.9231C25.618 33.8245 26.0261 34.7277 26.4275 35.6328C26.6348 36.1043 26.5127 36.465 26.1037 36.6468C25.6947 36.8286 25.351 36.6752 25.1323 36.215C24.9488 35.7896 24.7253 35.3826 24.4649 34.9994C24.0843 36.2293 23.6667 37.4506 23.3287 38.6918C22.5988 41.356 22.8828 44.0145 23.6468 46.6077C25.7004 53.646 30.2988 58.27 37.2207 60.5962C39.2756 61.2642 41.4283 61.5821 43.5886 61.5364C43.7903 61.5364 43.992 61.5364 44.1936 61.5364C44.2872 61.5305 44.3811 61.544 44.4692 61.5762C44.5573 61.6084 44.6378 61.6585 44.7056 61.7233C44.7734 61.7882 44.827 61.8664 44.8631 61.953C44.8991 62.0396 44.9168 62.1328 44.9151 62.2266C44.9213 62.3208 44.9074 62.4153 44.8742 62.5037C44.8411 62.5922 44.7894 62.6726 44.7228 62.7395C44.6561 62.8064 44.576 62.8583 44.4877 62.8918C44.3994 62.9254 44.3049 62.9397 44.2107 62.9338C43.0745 62.9139 41.9043 62.9338 40.7654 62.806C36.6638 62.3658 32.7801 60.7369 29.5916 58.1195C25.0793 54.4441 22.4284 49.7103 21.6388 43.918C21.2212 40.8646 21.8575 38.0044 22.9112 35.1897C22.9765 35.0136 23.0362 34.8403 23.1356 34.5648C22.7891 34.7296 22.5164 34.8489 22.2437 34.9909C21.599 35.309 21.3916 35.2579 20.9741 34.7068L20.9855 34.2694Z" fill="#1E61FC"/>
<path d="M33.071 47.585C32.6649 46.5028 32.307 45.5371 31.9349 44.5799C31.9033 44.5248 31.8595 44.4777 31.8068 44.4423C31.7541 44.4068 31.6939 44.3839 31.631 44.3754C31.2589 44.3498 30.884 44.3754 30.4949 44.3754C30.2755 44.3743 30.0585 44.3296 29.8565 44.244C29.6545 44.1583 29.4716 44.0334 29.3183 43.8764C29.1651 43.7194 29.0445 43.5335 28.9637 43.3296C28.8828 43.1256 28.8434 42.9076 28.8475 42.6883C28.8305 41.8987 28.8305 41.1062 28.8475 40.3166C28.8477 40.0956 28.8924 39.877 28.9789 39.6737C29.0654 39.4703 29.1919 39.2865 29.3509 39.133C29.5099 38.9796 29.6982 38.8597 29.9045 38.7805C30.1107 38.7013 30.3309 38.6645 30.5517 38.6721C30.9834 38.6721 31.4038 38.6721 31.7503 38.6721C32.1962 37.6865 32.6194 36.7662 33.0227 35.8318C33.0404 35.7649 33.0427 35.6949 33.0295 35.627C33.0162 35.5591 32.9877 35.4951 32.9461 35.4398C32.7359 35.187 32.4859 34.9683 32.253 34.7297C32.091 34.5803 31.9608 34.3997 31.8702 34.1988C31.7795 33.9979 31.7304 33.7808 31.7256 33.5605C31.7208 33.3401 31.7605 33.1211 31.8424 32.9164C31.9242 32.7118 32.0465 32.5257 32.2019 32.3694C32.77 31.7758 33.3607 31.2078 33.9714 30.6653C34.2865 30.372 34.7042 30.2142 35.1345 30.2259C35.5648 30.2375 35.9733 30.4178 36.2721 30.7277C36.6044 31.043 36.9026 31.3952 37.1639 31.6707L40.3649 30.367C40.3649 30.0035 40.3649 29.5746 40.3649 29.1429C40.3649 28.0522 41.0466 27.3733 42.143 27.3563C42.8758 27.3449 43.6086 27.3449 44.3414 27.3563C44.558 27.3506 44.7737 27.3883 44.9755 27.4673C45.1774 27.5462 45.3614 27.6647 45.5168 27.8158C45.6722 27.967 45.7957 28.1477 45.8802 28.3473C45.9646 28.5469 46.0083 28.7614 46.0086 28.9781C46.0342 29.4496 45.8751 30.0432 46.1052 30.3585C46.3353 30.6738 46.9573 30.7079 47.3862 30.8783C47.6702 30.9862 47.9542 31.114 48.2099 31.2447C48.4655 31.3753 48.7438 31.5287 49.1216 31.7247C49.3829 31.4407 49.6584 31.1112 49.9737 30.8101C50.1263 30.6469 50.3104 30.5163 50.5149 30.4261C50.7194 30.336 50.9399 30.2881 51.1634 30.2854C51.3868 30.2828 51.6085 30.3254 51.8151 30.4107C52.0216 30.496 52.2087 30.6222 52.3652 30.7817C52.9333 31.3195 53.4748 31.8752 53.9899 32.449C54.1508 32.61 54.2774 32.802 54.3619 33.0134C54.4464 33.2248 54.4871 33.4512 54.4816 33.6788C54.476 33.9064 54.4242 34.1305 54.3295 34.3375C54.2347 34.5445 54.0989 34.7302 53.9302 34.8831C53.632 35.1927 53.1605 35.4711 53.0923 35.8261C53.0242 36.1811 53.419 36.556 53.5724 36.9395C53.8308 37.5757 54.058 38.2261 54.3165 38.9277C54.7369 38.9277 55.1942 38.9277 55.6543 38.9277C55.8777 38.9204 56.1002 38.9585 56.3084 39.0397C56.5166 39.121 56.7062 39.2437 56.8655 39.4004C57.0249 39.5571 57.1507 39.7445 57.2355 39.9513C57.3202 40.1581 57.3621 40.38 57.3585 40.6035C57.3755 41.3931 57.3755 42.1855 57.3585 42.9751C57.3541 43.4045 57.1826 43.8152 56.8803 44.1202C56.578 44.4251 56.1688 44.6002 55.7395 44.6083C55.2822 44.6282 54.7142 44.4833 54.3989 44.702C54.0836 44.9207 54.0893 45.503 53.916 45.9092C53.703 46.4119 53.4644 46.9033 53.2088 47.3833C53.1799 47.4186 53.1587 47.4594 53.1465 47.5033C53.1342 47.5472 53.1312 47.5931 53.1376 47.6382C53.144 47.6834 53.1597 47.7267 53.1837 47.7654C53.2077 47.8041 53.2394 47.8375 53.277 47.8633C53.5155 48.0735 53.7314 48.3036 53.953 48.5308C54.1165 48.6786 54.2485 48.858 54.3411 49.0581C54.4338 49.2581 54.4851 49.4748 54.4919 49.6952C54.4988 49.9156 54.4612 50.1351 54.3813 50.3406C54.3013 50.546 54.1808 50.7333 54.0268 50.8911C53.4587 51.4989 52.8566 52.0783 52.2289 52.6293C51.9127 52.9092 51.5019 53.0582 51.0798 53.046C50.6578 53.0339 50.2562 52.8616 49.9566 52.564C49.6215 52.2487 49.3261 51.7318 48.9512 51.6665C48.5763 51.6011 48.1445 52.013 47.7213 52.1834C47.2177 52.3934 46.7028 52.5755 46.179 52.7287C46.1269 52.7337 46.0765 52.7495 46.0309 52.7752C45.9854 52.8009 45.9457 52.836 45.9146 52.8781C45.8836 52.9202 45.8617 52.9683 45.8505 53.0194C45.8393 53.0705 45.839 53.1234 45.8496 53.1747C45.8666 53.5212 45.8666 53.8677 45.8496 54.2114C45.8498 54.4352 45.8046 54.6567 45.7166 54.8625C45.6285 55.0683 45.4995 55.254 45.3375 55.4084C45.1754 55.5627 44.9836 55.6825 44.7738 55.7604C44.564 55.8384 44.3405 55.8728 44.117 55.8616C43.2649 55.8616 42.3929 55.8446 41.5323 55.7878C41.1712 55.7582 40.8334 55.5974 40.5827 55.3357C40.332 55.0741 40.1859 54.7297 40.1718 54.3676C40.1462 53.9941 40.1462 53.6192 40.1718 53.2457C40.1974 52.9361 40.0553 52.848 39.7912 52.7458C39.0016 52.4618 38.2148 52.1294 37.4565 51.7602C37.1724 51.6182 37.002 51.6324 36.806 51.8681C36.6101 52.1039 36.4027 52.28 36.1982 52.4788C36.0506 52.6377 35.8728 52.7656 35.6752 52.8551C35.4776 52.9446 35.2642 52.9938 35.0474 52.9999C34.8306 53.0059 34.6147 52.9688 34.4124 52.8905C34.2101 52.8123 34.0254 52.6945 33.8692 52.5441C33.25 51.9761 32.6563 51.3569 32.0968 50.7206C31.8195 50.4007 31.6758 49.9865 31.6953 49.5635C31.7149 49.1406 31.8962 48.7414 32.2019 48.4484C32.4774 48.1218 32.8239 47.8093 33.071 47.585ZM42.9383 54.4358C43.2677 54.4358 43.6 54.4358 43.9295 54.4358C44.259 54.4358 44.401 54.3335 44.3868 53.9842C44.3641 53.4388 44.3868 52.8935 44.3868 52.3453C44.3868 51.7971 44.5686 51.6125 45.0713 51.5103C46.2984 51.258 47.4689 50.7835 48.5251 50.11C48.9739 49.826 49.2494 49.8742 49.6385 50.2577C50.0277 50.6411 50.4026 50.999 50.7747 51.3938C51.0019 51.6352 51.1865 51.6494 51.4222 51.4108C51.8881 50.9394 52.3652 50.4792 52.8424 50.0305C53.0668 49.8231 53.0554 49.6555 52.8424 49.4624C52.4618 49.0932 52.084 48.7154 51.7063 48.3263C51.3285 47.9372 51.3058 47.6702 51.5813 47.2498C52.2655 46.2003 52.7579 45.0376 53.0355 43.8159C53.0453 43.7181 53.0747 43.6232 53.1219 43.537C53.1691 43.4508 53.2332 43.3749 53.3103 43.314C53.3874 43.253 53.476 43.2082 53.5708 43.1822C53.6656 43.1562 53.7646 43.1495 53.8621 43.1626C54.4074 43.1626 54.9556 43.1626 55.5009 43.1626C55.785 43.1626 55.9184 43.0518 55.9156 42.7564C55.9156 42.1088 55.8986 41.4613 55.9156 40.8165C55.9156 40.4331 55.7651 40.3081 55.4015 40.3195C54.8335 40.3393 54.2483 40.3195 53.6746 40.3195C53.4916 40.3337 53.3103 40.2757 53.1696 40.1578C53.0289 40.0399 52.9399 39.8716 52.9219 39.6889C52.6824 38.4457 52.2092 37.2592 51.5273 36.1925C51.2433 35.7494 51.2859 35.4824 51.6438 35.1132C52.0017 34.7439 52.422 34.3179 52.8367 33.9202C52.8854 33.8888 52.9254 33.8457 52.9531 33.7949C52.9808 33.744 52.9953 33.687 52.9953 33.6291C52.9953 33.5712 52.9808 33.5142 52.9531 33.4634C52.9254 33.4125 52.8854 33.3694 52.8367 33.338C52.3709 32.8693 51.9079 32.3978 51.4592 31.9178C51.2234 31.6594 51.0416 31.6878 50.8173 31.9178C50.4594 32.2927 50.0901 32.6563 49.7181 33.017C49.346 33.3777 49.0762 33.4204 48.6444 33.1392C47.6057 32.4662 46.4583 31.978 45.2531 31.6963C44.7049 31.5628 44.5515 31.3554 44.5459 30.7817C44.5402 30.208 44.5459 29.6882 44.5459 29.1429C44.5459 28.8588 44.4493 28.7509 44.1709 28.7566C43.5092 28.7566 42.8474 28.7566 42.1827 28.7566C41.8987 28.7566 41.751 28.8389 41.7595 29.1514C41.7595 29.7422 41.7595 30.3329 41.7595 30.9209C41.7717 31.0183 41.7643 31.1172 41.7375 31.2117C41.7108 31.3061 41.6653 31.3943 41.6039 31.4708C41.5424 31.5474 41.4662 31.6108 41.3797 31.6574C41.2933 31.7039 41.1983 31.7326 41.1006 31.7417C39.874 31.9852 38.7043 32.4573 37.6524 33.1335C37.1724 33.4346 36.9168 33.3976 36.5163 32.9915C36.1158 32.5853 35.7551 32.2473 35.3802 31.8553C35.17 31.6338 34.9911 31.5997 34.7639 31.8298C34.2838 32.307 33.7953 32.7728 33.3039 33.2499C33.2582 33.2789 33.2205 33.3189 33.1944 33.3663C33.1682 33.4138 33.1546 33.467 33.1546 33.5212C33.1546 33.5753 33.1682 33.6286 33.1944 33.676C33.2205 33.7234 33.2582 33.7635 33.3039 33.7924C33.676 34.1532 34.0396 34.5224 34.406 34.8888C34.8207 35.3092 34.8547 35.5847 34.5423 36.0704C33.8823 37.0836 33.4072 38.2058 33.1392 39.385C33.0171 39.9303 32.7984 40.0951 32.2275 40.1036C31.6566 40.1121 31.1652 40.1036 30.6312 40.1036C30.3642 40.1036 30.2392 40.2115 30.2421 40.4899C30.2421 41.1659 30.2421 41.8419 30.2421 42.5178C30.2421 42.8416 30.3813 42.9439 30.688 42.9354C31.2334 42.9354 31.7815 42.9354 32.3269 42.9354C32.8722 42.9354 33.071 43.1086 33.179 43.6114C33.4293 44.8385 33.903 46.0092 34.5764 47.0652C34.8604 47.5139 34.815 47.7923 34.4344 48.1786C34.0538 48.5649 33.6931 48.9398 33.2983 49.3147C33.0597 49.5391 33.0369 49.7209 33.2784 49.9594C33.7527 50.4224 34.2128 50.8996 34.6644 51.3796C34.6955 51.4265 34.7377 51.4649 34.7873 51.4915C34.8369 51.5181 34.8922 51.532 34.9485 51.532C35.0047 51.532 35.0601 51.5181 35.1096 51.4915C35.1592 51.4649 35.2014 51.4265 35.2325 51.3796C35.6112 51.0009 35.9899 50.6222 36.3686 50.2435C36.735 49.8856 37.0304 49.843 37.4451 50.11C38.4946 50.7942 39.6573 51.2866 40.879 51.5642C41.3732 51.675 41.5295 51.9022 41.5351 52.4163C41.5408 52.9304 41.5351 53.4814 41.5351 54.0126C41.5351 54.2966 41.6544 54.4329 41.947 54.4244C42.2395 54.4159 42.6059 54.4358 42.9383 54.4358Z" fill="#1E61FC"/>
<path d="M60.3745 29.708C59.3509 28.3857 58.1647 27.1976 56.844 26.1719C53.5464 23.5929 49.8426 21.9114 45.6759 21.4484C39.9953 20.8065 34.8401 22.275 30.3837 25.902C29.2646 26.8109 28.3216 27.9328 27.3162 28.9809C27.0321 29.2649 26.7481 29.4751 26.3419 29.2933C25.8818 29.086 25.8193 28.5634 26.1886 28.0976C27.2618 26.7296 28.5023 25.5015 29.881 24.4421C34.4254 20.9713 39.5891 19.4204 45.2726 19.9828C51.4048 20.5878 56.523 23.323 60.6841 27.859L61.0391 28.2396C61.0391 27.8931 61.0391 27.6403 61.0391 27.3875C61.0349 27.2902 61.0502 27.1931 61.0842 27.1018C61.1181 27.0106 61.1699 26.927 61.2366 26.8561C61.3033 26.7852 61.3835 26.7283 61.4725 26.6888C61.5615 26.6494 61.6575 26.6281 61.7549 26.6263C61.8493 26.6259 61.9429 26.6445 62.03 26.6809C62.1171 26.7174 62.196 26.771 62.262 26.8386C62.3279 26.9061 62.3797 26.9863 62.414 27.0742C62.4484 27.1622 62.4648 27.2562 62.4621 27.3506C62.4905 28.3702 62.4962 29.3899 62.4877 30.4124C62.486 30.5143 62.4636 30.6147 62.4219 30.7076C62.3803 30.8006 62.3202 30.8841 62.2453 30.9532C62.1704 31.0222 62.0823 31.0753 61.9863 31.1093C61.8903 31.1433 61.7883 31.1575 61.6867 31.1509C60.6216 31.1651 59.5593 31.1651 58.4942 31.1509C58.3934 31.1637 58.2911 31.1549 58.1939 31.125C58.0968 31.0952 58.0072 31.045 57.931 30.9778C57.8547 30.9107 57.7937 30.828 57.7519 30.7354C57.7101 30.6429 57.6884 30.5424 57.6884 30.4408C57.6884 30.3392 57.7101 30.2388 57.7519 30.1462C57.7937 30.0536 57.8547 29.971 57.931 29.9038C58.0072 29.8367 58.0968 29.7865 58.1939 29.7567C58.2911 29.7268 58.3934 29.718 58.4942 29.7308C59.0907 29.6995 59.6786 29.708 60.3745 29.708Z" fill="#1E61FC"/>
<path d="M50.783 61.4709C51.1778 61.6499 51.5328 61.8004 51.8793 61.968C51.9686 62.0035 52.0497 62.0567 52.1177 62.1244C52.1858 62.1922 52.2394 62.273 52.2753 62.3621C52.3113 62.4511 52.3288 62.5465 52.3268 62.6425C52.3248 62.7385 52.3033 62.8331 52.2637 62.9206C52.2241 63.0081 52.1672 63.0866 52.0963 63.1515C52.0255 63.2163 51.9423 63.2661 51.8516 63.2979C51.761 63.3296 51.6649 63.3427 51.5691 63.3362C51.4733 63.3298 51.3798 63.3039 51.2942 63.2603C50.3853 62.8702 49.4793 62.4707 48.5761 62.0617C48.4636 62.0278 48.3612 61.9668 48.2779 61.8839C48.1947 61.8011 48.133 61.6991 48.0985 61.5868C48.064 61.4745 48.0576 61.3555 48.08 61.2402C48.1023 61.1248 48.1527 61.0168 48.2267 60.9256C48.7579 60.0905 49.3032 59.2612 49.8542 58.4346C49.9012 58.3495 49.965 58.2749 50.0418 58.2153C50.1186 58.1557 50.2067 58.1123 50.3008 58.0878C50.3949 58.0634 50.4929 58.0584 50.589 58.0731C50.6851 58.0878 50.7772 58.1219 50.8597 58.1733C51.2204 58.4006 51.2886 58.8039 51.0301 59.2299C50.8835 59.4439 50.7651 59.6759 50.6779 59.9201C51.0727 59.7383 51.4732 59.5679 51.8595 59.3691C56.9919 56.7305 60.7212 52.808 62.7009 47.3404C64.2091 43.1794 64.0415 38.9956 62.6242 34.8431C62.5646 34.667 62.4936 34.4937 62.4339 34.3176C62.2663 33.8234 62.4197 33.4314 62.8344 33.2866C62.9302 33.2534 63.0319 33.2409 63.1328 33.2501C63.2338 33.2593 63.3316 33.29 63.4197 33.34C63.5079 33.39 63.5844 33.4582 63.6441 33.5401C63.7038 33.622 63.7454 33.7156 63.766 33.8149C64.1102 34.7692 64.4004 35.7421 64.6352 36.729C66.4757 45.9316 63.1014 53.0636 55.8302 58.5994C55.0549 59.1706 54.2406 59.6869 53.3932 60.1445C52.5724 60.6188 51.6919 61.0136 50.783 61.4709Z" fill="#1E61FC"/>
<path d="M36.6553 41.6516C36.6785 39.9613 37.3695 38.3489 38.5776 37.1664C39.7856 35.9839 41.4124 35.3275 43.1028 35.3404C43.3319 35.346 43.5588 35.3862 43.7759 35.4597C43.912 35.4971 44.0293 35.5839 44.1049 35.7031C44.1805 35.8223 44.209 35.9654 44.1849 36.1044C44.1916 36.244 44.1466 36.3811 44.0586 36.4895C43.9706 36.598 43.8457 36.6702 43.7078 36.6924C43.2419 36.7662 42.7648 36.7776 42.2876 36.8486C39.7853 37.2264 37.9363 39.4475 38.0754 41.893C38.1577 43.1248 38.6942 44.2823 39.5809 45.1413C40.4677 46.0003 41.6417 46.4996 42.8755 46.5426C46.6247 46.6903 49.2606 42.9269 47.6103 39.5156C47.3831 39.047 47.5052 38.6295 47.8944 38.4534C48.2835 38.2773 48.6612 38.4534 48.9027 38.9192C50.7119 42.4894 48.5476 46.9317 44.5655 47.815C43.7061 48.0188 42.8139 48.0436 41.9445 47.8877C41.0751 47.7318 40.2471 47.3987 39.512 46.909C38.7769 46.4193 38.1505 45.7835 37.6717 45.0413C37.193 44.299 36.8721 43.4662 36.7291 42.5945C36.6837 42.2849 36.6837 41.9668 36.6553 41.6516Z" fill="#1E61FC"/>
<path d="M46.4941 38.0045C46.0447 37.7232 45.6217 37.4019 45.2301 37.0445C45.1108 36.9166 45.1875 36.4764 45.3324 36.2833C45.4274 36.197 45.5418 36.1349 45.6659 36.1023C45.79 36.0697 45.9201 36.0674 46.0453 36.0958C46.3938 36.2269 46.716 36.4193 46.9968 36.6639C47.116 36.7514 47.1963 36.882 47.2207 37.0279C47.2451 37.1737 47.2116 37.3234 47.1275 37.4449C46.9375 37.6541 46.7251 37.8418 46.4941 38.0045Z" fill="#1E61FC"/>
</svg>
