<svg width="189" height="39" viewBox="0 0 189 39" fill="none" xmlns="http://www.w3.org/2000/svg">
<g clip-path="url(#clip0_63_125)">
<mask id="mask0_63_125" style="mask-type:luminance" maskUnits="userSpaceOnUse" x="0" y="8" width="190" height="23">
<path d="M189.117 8H0V30.694H189.117V8Z" fill="white"/>
</mask>
<g mask="url(#mask0_63_125)">
<path d="M6.87912 18.3509C6.81022 18.2637 6.71922 18.1952 6.61492 18.152C6.51063 18.1087 6.39657 18.0922 6.28376 18.1041C6.17095 18.1159 6.06321 18.1557 5.97094 18.2196C5.87869 18.2835 5.80504 18.3694 5.7571 18.4688L0.0717272 29.4623C0.0199342 29.5625 -0.00451982 29.6738 0.000687135 29.7858C0.00589409 29.8976 0.0405891 30.0064 0.101478 30.1017C0.162367 30.1969 0.247429 30.2756 0.348588 30.3302C0.449746 30.3848 0.563644 30.4134 0.679466 30.4134H8.59607C8.72286 30.4162 8.84779 30.3834 8.95567 30.319C9.06355 30.2544 9.14976 30.161 9.20381 30.0501C10.9115 26.6373 9.87658 21.4481 6.87912 18.3509Z" fill="#808080"/>
<path d="M11.0503 8.35208C9.63365 10.4602 8.80809 12.8882 8.65463 15.398C8.50117 17.9078 9.02507 20.4131 10.1749 22.668L13.9916 30.0504C14.048 30.1595 14.1347 30.2513 14.2422 30.3155C14.3495 30.3797 14.4731 30.4136 14.5993 30.4136H22.5145C22.6304 30.4136 22.7442 30.385 22.8455 30.3305C22.9466 30.2759 23.0317 30.1972 23.0926 30.1019C23.1535 30.0066 23.1881 29.8979 23.1933 29.786C23.1985 29.6741 23.174 29.5628 23.1223 29.4626C23.1223 29.4626 12.4737 8.86318 12.2061 8.34795C12.1532 8.24308 12.0707 8.15475 11.9683 8.0931C11.8658 8.03145 11.7475 7.99898 11.6268 7.99941C11.5062 7.99984 11.3881 8.03316 11.2861 8.09553C11.1841 8.15791 11.1024 8.24683 11.0503 8.35208Z" fill="#808080"/>
<path d="M103.889 17.1669C103.889 19.8891 105.195 22.0505 110.303 23.0046C113.35 23.6233 113.988 24.099 113.988 25.0814C113.988 26.0355 113.348 26.6532 111.202 26.6532C108.608 26.6081 106.066 25.9427 103.802 24.7166V29.1507C105.341 29.8803 107.372 30.6942 111.144 30.6942C116.484 30.6942 118.603 28.3913 118.603 24.9689L103.889 17.1669ZM118.603 24.9689C118.603 21.7414 116.832 20.2256 111.841 19.1876C109.084 18.5981 108.417 18.009 108.417 17.1669C108.417 16.1014 109.403 15.6514 111.231 15.6514C113.437 15.6514 115.613 16.2969 117.674 17.1951V12.957C115.698 12.0874 113.547 11.6559 111.376 11.6942C106.443 11.6942 103.889 13.7709 103.889 17.1669" fill="#808080"/>
<path d="M172.49 11.9744V30.4136H176.553V16.3527L178.265 20.0851L184.011 30.4136H189.118V11.9744H185.056V23.8743L183.518 20.422L178.903 11.9744H172.49Z" fill="#808080"/>
<path d="M146.647 11.9744H142.207V30.4136H146.647V11.9744Z" fill="#808080"/>
<path d="M137.086 24.9689C137.086 21.7414 135.316 20.2256 130.324 19.1876C127.567 18.5981 126.9 18.009 126.9 17.1669C126.9 16.1014 127.887 15.6514 129.715 15.6514C131.92 15.6514 134.096 16.2969 136.156 17.1951V12.957C134.182 12.0874 132.03 11.6559 129.86 11.6942C124.926 11.6942 122.373 13.7709 122.373 17.1669C122.373 19.8891 123.678 22.0505 128.786 23.0046C131.833 23.6233 132.471 24.099 132.471 25.0814C132.471 26.0355 131.832 26.6532 129.685 26.6532C127.091 26.6081 124.549 25.9427 122.286 24.7166V29.1507C123.824 29.8803 125.855 30.6942 129.628 30.6942C134.968 30.6942 137.086 28.3913 137.086 24.9689Z" fill="#808080"/>
<path d="M69.397 11.9744V30.4136H78.523L79.9599 26.4281H73.8658V11.9744H69.397Z" fill="#808080"/>
<path d="M51.3668 11.9744V15.9595H56.3001V30.4136H60.769V15.9595H66.0506V11.9744H51.3668Z" fill="#808080"/>
<path d="M44.8865 11.9744H39.0298L32.3813 30.4136H37.4586L38.4012 27.308C40.7224 27.9673 43.1908 27.9673 45.5121 27.308L46.4545 30.4136H51.5329L44.8865 11.9744ZM41.9581 23.9828C41.131 23.9828 40.3081 23.8684 39.5146 23.6429L41.9581 15.5962L44.4015 23.6457C43.6077 23.8703 42.7849 23.9837 41.9581 23.9828Z" fill="#808080"/>
<path d="M94.2584 11.9744H88.4021L81.7537 30.4136H86.8319L87.7745 27.308C90.0957 27.9673 92.5641 27.9673 94.8854 27.308L95.8278 30.4136H100.906L94.2584 11.9744ZM91.3303 23.9828C90.5032 23.9828 89.6804 23.8684 88.8869 23.6429L91.3303 15.5962L93.7737 23.6457C92.98 23.8703 92.1572 23.9837 91.3303 23.9828Z" fill="#808080"/>
<path d="M162.651 11.9744H156.794L150.146 30.4136H155.225L156.166 27.308C158.489 27.9673 160.956 27.9673 163.277 27.308L164.22 30.4136H169.299L162.651 11.9744ZM159.721 23.9828C158.894 23.9828 158.071 23.8684 157.277 23.6429L159.721 15.5962L162.164 23.6457C161.371 23.8703 160.548 23.9837 159.721 23.9828Z" fill="#808080"/>
</g>
</g>
<defs>
<clipPath id="clip0_63_125">
<rect width="189" height="39" fill="white"/>
</clipPath>
</defs>
</svg>
