<svg width="182" height="42" viewBox="0 0 182 42" fill="none" xmlns="http://www.w3.org/2000/svg">
<path d="M48.2767 12.4936H51.9355L56.8353 24.453H57.0288L61.9286 12.4936H65.5873V28.9983H62.7183V17.6594H62.5653L58.0039 28.95H55.8602L51.2988 17.6352H51.1458V28.9983H48.2767V12.4936ZM73.411 29.2482C72.6265 29.2482 71.9201 29.1085 71.2915 28.8291C70.6683 28.5443 70.1739 28.1253 69.8087 27.5718C69.4486 27.0185 69.2687 26.3361 69.2687 25.5249C69.2687 24.8265 69.3977 24.2489 69.6555 23.7923C69.9135 23.3356 70.2653 22.9702 70.7113 22.6963C71.1572 22.4222 71.6595 22.2154 72.2183 22.0757C72.7824 21.9306 73.3653 21.8258 73.9671 21.7614C74.6923 21.6861 75.2807 21.6191 75.7319 21.5599C76.1833 21.4954 76.511 21.3987 76.7151 21.2698C76.9246 21.1354 77.0294 20.9287 77.0294 20.6493V20.6009C77.0294 19.9938 76.8495 19.5236 76.4895 19.1905C76.1296 18.8574 75.611 18.6909 74.9341 18.6909C74.2195 18.6909 73.6528 18.8467 73.2337 19.1583C72.8201 19.4699 72.5407 19.838 72.3955 20.2625L69.6716 19.8755C69.8865 19.1233 70.2411 18.4948 70.7354 17.9898C71.2297 17.4794 71.8341 17.0979 72.5487 16.8454C73.2632 16.5875 74.053 16.4586 74.918 16.4586C75.5143 16.4586 76.108 16.5284 76.6991 16.6681C77.29 16.8078 77.83 17.0388 78.3189 17.3612C78.8077 17.6782 79.2 18.1107 79.4955 18.6586C79.7963 19.2067 79.9469 19.8917 79.9469 20.7137V28.9983H77.1422V27.2979H77.0455C76.8683 27.6417 76.6184 27.964 76.2961 28.265C75.9791 28.5604 75.5789 28.7996 75.0952 28.9823C74.6172 29.1595 74.0557 29.2482 73.411 29.2482ZM74.1686 27.1044C74.7541 27.1044 75.2618 26.989 75.6917 26.7579C76.1215 26.5215 76.4518 26.2099 76.6829 25.8231C76.9193 25.4363 77.0375 25.0145 77.0375 24.5578V23.0992C76.9462 23.1744 76.7904 23.2442 76.5701 23.3086C76.3551 23.3732 76.1135 23.4295 75.8448 23.4779C75.5761 23.5262 75.3102 23.5692 75.047 23.6069C74.7837 23.6445 74.5554 23.6768 74.362 23.7036C73.9268 23.7626 73.5372 23.8593 73.1934 23.9937C72.8496 24.128 72.5782 24.3161 72.3794 24.5578C72.1807 24.7942 72.0812 25.1004 72.0812 25.4765C72.0812 26.0138 72.2774 26.4195 72.6695 26.6934C73.0617 26.9674 73.5614 27.1044 74.1686 27.1044ZM84.015 28.9983V16.6198H86.8437V18.6828H86.9725C87.1982 17.9683 87.585 17.4176 88.1331 17.0308C88.6864 16.6386 89.3177 16.4425 90.0269 16.4425C90.1881 16.4425 90.3681 16.4505 90.5669 16.4666C90.771 16.4774 90.9403 16.4962 91.0746 16.5231V19.2067C90.951 19.1637 90.7549 19.1261 90.4863 19.0938C90.2231 19.0563 89.9678 19.0375 89.7207 19.0375C89.1889 19.0375 88.7106 19.153 88.2861 19.3839C87.8672 19.6096 87.5367 19.9239 87.2949 20.3269C87.0532 20.7298 86.9323 21.1946 86.9323 21.7211V28.9983H84.015ZM96.807 25.1139L96.7989 21.5921H97.2663L101.715 16.6198H105.124L99.6517 22.7123H99.0473L96.807 25.1139ZM94.1475 28.9983V12.4936H97.0648V28.9983H94.1475ZM101.916 28.9983L97.8868 23.3651L99.8531 21.31L105.406 28.9983H101.916ZM113.173 29.2401C111.932 29.2401 110.86 28.9823 109.958 28.4665C109.06 27.9453 108.37 27.2092 107.886 26.2582C107.403 25.3019 107.161 24.1764 107.161 22.8816C107.161 21.6082 107.403 20.4908 107.886 19.5291C108.375 18.5619 109.058 17.8098 109.933 17.2725C110.809 16.7299 111.838 16.4586 113.02 16.4586C113.783 16.4586 114.503 16.5821 115.18 16.8293C115.862 17.0711 116.464 17.4471 116.985 17.9575C117.511 18.468 117.925 19.118 118.226 19.9078C118.527 20.6923 118.677 21.627 118.677 22.7123V23.6069H108.531V21.6405H115.881C115.875 21.0817 115.755 20.5847 115.518 20.1496C115.282 19.709 114.951 19.3625 114.527 19.11C114.108 18.8574 113.619 18.7312 113.06 18.7312C112.464 18.7312 111.94 18.8762 111.489 19.1663C111.037 19.4511 110.686 19.8272 110.433 20.2946C110.186 20.7567 110.06 21.2644 110.054 21.8178V23.5343C110.054 24.2543 110.186 24.8721 110.449 25.3879C110.712 25.8983 111.08 26.2905 111.553 26.5645C112.026 26.8331 112.579 26.9674 113.213 26.9674C113.638 26.9674 114.022 26.9084 114.366 26.7901C114.71 26.6666 115.008 26.4865 115.26 26.2501C115.513 26.0137 115.704 25.721 115.833 25.3718L118.556 25.678C118.384 26.3979 118.057 27.0265 117.573 27.5639C117.095 28.0957 116.483 28.5095 115.736 28.8049C114.989 29.095 114.135 29.2401 113.173 29.2401ZM128.461 16.6198V18.8762H121.345V16.6198H128.461ZM123.102 13.6541H126.019V25.2751C126.019 25.6673 126.079 25.9681 126.196 26.1777C126.32 26.3819 126.481 26.5215 126.68 26.5967C126.878 26.672 127.099 26.7096 127.341 26.7096C127.524 26.7096 127.69 26.6961 127.84 26.6692C127.997 26.6424 128.115 26.6183 128.196 26.5967L128.686 28.8775C128.531 28.9312 128.308 28.9902 128.018 29.0547C127.733 29.1192 127.384 29.1567 126.97 29.1676C126.239 29.189 125.582 29.079 124.996 28.8371C124.41 28.59 123.946 28.2085 123.602 27.6927C123.263 27.1769 123.097 26.5323 123.102 25.7586V13.6541ZM132.036 28.9983V16.6198H134.864V18.6828H134.994C135.218 17.9683 135.606 17.4176 136.154 17.0308C136.707 16.6386 137.339 16.4425 138.048 16.4425C138.209 16.4425 138.389 16.4505 138.587 16.4666C138.792 16.4774 138.962 16.4962 139.095 16.5231V19.2067C138.972 19.1637 138.776 19.1261 138.507 19.0938C138.244 19.0563 137.988 19.0375 137.741 19.0375C137.209 19.0375 136.731 19.153 136.307 19.3839C135.888 19.6096 135.558 19.9239 135.316 20.3269C135.073 20.7298 134.954 21.1946 134.954 21.7211V28.9983H132.036ZM145.509 29.2482C144.725 29.2482 144.017 29.1085 143.39 28.8291C142.765 28.5443 142.271 28.1253 141.907 27.5718C141.546 27.0185 141.366 26.3361 141.366 25.5249C141.366 24.8265 141.496 24.2489 141.753 23.7923C142.012 23.3356 142.363 22.9702 142.81 22.6963C143.255 22.4222 143.758 22.2154 144.316 22.0757C144.88 21.9306 145.464 21.8258 146.065 21.7614C146.79 21.6861 147.379 21.6191 147.83 21.5599C148.281 21.4954 148.609 21.3987 148.813 21.2698C149.023 21.1354 149.127 20.9287 149.127 20.6493V20.6009C149.127 19.9938 148.947 19.5236 148.588 19.1905C148.227 18.8574 147.709 18.6909 147.032 18.6909C146.317 18.6909 145.751 18.8467 145.331 19.1583C144.918 19.4699 144.639 19.838 144.493 20.2625L141.769 19.8755C141.984 19.1233 142.339 18.4948 142.834 17.9898C143.328 17.4794 143.932 17.0979 144.647 16.8454C145.361 16.5875 146.151 16.4586 147.016 16.4586C147.612 16.4586 148.206 16.5284 148.797 16.6681C149.388 16.8078 149.928 17.0388 150.417 17.3612C150.905 17.6782 151.297 18.1107 151.593 18.6586C151.894 19.2067 152.045 19.8917 152.045 20.7137V28.9983H149.24V27.2979H149.144C148.966 27.6417 148.716 27.964 148.394 28.265C148.077 28.5604 147.676 28.7996 147.193 28.9823C146.716 29.1595 146.153 29.2482 145.509 29.2482ZM146.267 27.1044C146.852 27.1044 147.36 26.989 147.79 26.7579C148.22 26.5215 148.55 26.2099 148.781 25.8231C149.018 25.4363 149.135 25.0145 149.135 24.5578V23.0992C149.044 23.1744 148.888 23.2442 148.668 23.3086C148.453 23.3732 148.211 23.4295 147.942 23.4779C147.674 23.5262 147.408 23.5692 147.144 23.6069C146.882 23.6445 146.654 23.6768 146.46 23.7036C146.025 23.7626 145.635 23.8593 145.291 23.9937C144.948 24.128 144.676 24.3161 144.478 24.5578C144.278 24.7942 144.179 25.1004 144.179 25.4765C144.179 26.0138 144.376 26.4195 144.768 26.6934C145.16 26.9674 145.659 27.1044 146.267 27.1044ZM161.512 29.2401C160.276 29.2401 159.215 28.9688 158.329 28.4261C157.447 27.8835 156.768 27.134 156.29 26.1777C155.817 25.2159 155.581 24.1092 155.581 22.8574C155.581 21.6001 155.822 20.4908 156.306 19.5291C156.789 18.5619 157.472 17.8098 158.352 17.2725C159.24 16.7299 160.288 16.4586 161.496 16.4586C162.5 16.4586 163.391 16.6439 164.163 17.0146C164.943 17.38 165.563 17.8984 166.026 18.57C166.487 19.2362 166.751 20.0152 166.815 20.9071H164.027C163.914 20.3107 163.645 19.8137 163.22 19.4162C162.802 19.0133 162.241 18.8118 161.536 18.8118C160.94 18.8118 160.416 18.9729 159.965 19.2953C159.514 19.6123 159.162 20.0689 158.91 20.6654C158.663 21.2618 158.539 21.9762 158.539 22.809C158.539 23.6526 158.663 24.3779 158.91 24.985C159.157 25.5867 159.502 26.0514 159.949 26.3791C160.4 26.7015 160.93 26.8626 161.536 26.8626C161.966 26.8626 162.35 26.7821 162.688 26.6209C163.032 26.4544 163.32 26.2152 163.551 25.9037C163.783 25.592 163.94 25.2133 164.027 24.7673H166.815C166.745 25.6431 166.487 26.4195 166.042 27.0964C165.596 27.768 164.988 28.2945 164.22 28.676C163.452 29.052 162.55 29.2401 161.512 29.2401ZM175.826 29.2401C174.584 29.2401 173.512 28.9823 172.609 28.4665C171.713 27.9453 171.022 27.2092 170.539 26.2582C170.055 25.3019 169.813 24.1764 169.813 22.8816C169.813 21.6082 170.055 20.4908 170.539 19.5291C171.027 18.5619 171.71 17.8098 172.585 17.2725C173.462 16.7299 174.49 16.4586 175.672 16.4586C176.435 16.4586 177.154 16.5821 177.832 16.8293C178.515 17.0711 179.116 17.4471 179.637 17.9575C180.164 18.468 180.577 19.118 180.879 19.9078C181.179 20.6923 181.33 21.627 181.33 22.7123V23.6069H171.183V21.6405H178.534C178.527 21.0817 178.406 20.5847 178.171 20.1496C177.934 19.709 177.603 19.3625 177.18 19.11C176.76 18.8574 176.271 18.7312 175.712 18.7312C175.116 18.7312 174.593 18.8762 174.141 19.1663C173.69 19.4511 173.338 19.8272 173.085 20.2946C172.838 20.7567 172.711 21.2644 172.706 21.8178V23.5343C172.706 24.2543 172.838 24.8721 173.101 25.3879C173.365 25.8983 173.733 26.2905 174.206 26.5645C174.678 26.8331 175.232 26.9674 175.866 26.9674C176.29 26.9674 176.674 26.9084 177.018 26.7901C177.363 26.6666 177.66 26.4865 177.912 26.2501C178.166 26.0137 178.356 25.721 178.485 25.3718L181.209 25.678C181.036 26.3979 180.709 27.0265 180.226 27.5639C179.748 28.0957 179.135 28.5095 178.388 28.8049C177.641 29.095 176.788 29.2401 175.826 29.2401Z" fill="#808080"/>
<path fill-rule="evenodd" clip-rule="evenodd" d="M1.78249 7.11447L13.3468 12.371C13.6783 12.5217 14.0588 12.5217 14.3903 12.371L25.9546 7.11447C26.7894 6.73503 27.7371 7.34529 27.7371 8.26224V13.8689V32.7805C27.7371 33.4769 27.1727 34.0413 26.4763 34.0413H21.4332C20.7369 34.0413 20.1725 33.4769 20.1725 32.7805V17.3074L14.3903 19.9357C14.0588 20.0864 13.6783 20.0864 13.3468 19.9357L0.739064 14.2049C0.288974 14.0003 0 13.5515 0 13.0571V8.26224C0 7.34529 0.947732 6.73503 1.78249 7.11447Z" fill="#808080"/>
<path d="M0 22.064C0 21.1644 0.915234 20.5542 1.7457 20.9003L6.78881 23.0015C7.25863 23.1973 7.56467 23.6563 7.56467 24.1653V32.7806C7.56467 33.4769 7.00019 34.0414 6.30389 34.0414H1.26078C0.564469 34.0414 0 33.4769 0 32.7806V22.064Z" fill="#808080"/>
</svg>
