<svg width="186" height="44" viewBox="0 0 186 44" fill="none" xmlns="http://www.w3.org/2000/svg">
<path d="M175.727 19.2775V18.8967H178.407V19.2775H177.295V22.0752H176.839V19.2775H175.727Z" fill="#808080"/>
<path d="M181.907 19.2111L180.847 22.0752H180.417L179.358 19.2111H179.348V22.0752H178.892V18.8967H179.71L180.664 21.5127H180.675L181.612 18.8967H182.375V22.0752H181.92V19.2111H181.907Z" fill="#808080"/>
<path d="M128.905 14.2401V30.0187H139.549V27.3954H132.412V14.2401H128.905ZM141.589 14.2401V17.0591H145.218V14.2401H141.589ZM162.633 14.2401V30.0187H166.018V24.0675L166.058 24.0282L169.526 30.0187H173.481L169.322 23.7151L173.237 18.9384H169.444L166.058 23.5194L166.018 23.4801V14.2401H162.633ZM155.333 18.7034C153.601 18.7034 152.535 19.3811 151.825 20.3871L151.784 20.3087V19.0559H148.399V30.0187H151.784V23.4019C151.83 21.8081 152.796 20.896 153.865 20.896C155.55 20.896 155.884 22.2204 155.904 23.4019V30.0187H159.329V22.8929C159.329 22.522 159.267 21.8089 159.085 21.131C158.674 19.5348 156.47 18.7034 155.333 18.7034ZM141.67 19.0559V30.0187H145.096V19.0559H141.67Z" fill="#808080"/>
<path d="M54.1055 13.9269C49.3706 14.31 47.8247 18.5195 47.8247 22.149C47.8247 26.5655 49.7425 30.3319 54.5948 30.3319C57.804 30.3319 60.6103 28.5929 60.8347 25.9468H58.4285C58.1571 27.6295 56.5488 28.4526 54.7988 28.4526C51.2215 28.4526 50.1901 25.4078 50.1901 22.149C50.1901 19.3702 50.9451 15.8063 55.0026 15.8063C56.6876 15.8063 58.3965 16.8011 58.5101 18.312H60.8756C60.6302 15.493 58.2912 14.0134 55.1249 13.9269C54.7806 13.9174 54.4211 13.9014 54.1055 13.9269ZM90.6481 16.0412L88.4865 16.7068V19.056H86.5287V20.5438H88.4865V27.4738C88.4865 28.9422 88.587 28.986 88.9758 29.5097C89.3374 29.9946 89.939 30.1859 90.2809 30.2536C90.8029 30.3388 91.1825 30.3319 91.7084 30.3319C92.2057 30.3319 92.678 30.2396 93.1766 30.2145V28.6092C92.8373 28.6957 92.4161 28.7659 92.0755 28.7659C91.3003 28.7659 90.6481 28.3755 90.6481 27.5912V20.5438H93.299V19.056H90.6481V16.0412ZM67.8496 18.7035C64.228 18.7035 62.5477 21.4007 62.5477 24.6156C62.5477 27.8506 64.0205 30.3319 67.6865 30.3319C70.4207 30.3319 72.3992 29.1045 72.7438 26.6124H70.4598C70.2053 28.206 69.3727 28.8441 67.6865 28.8441C65.4796 28.8441 64.6737 26.8533 64.8316 24.9289H72.9069V23.9109C72.9069 20.8751 71.2664 18.7688 67.8496 18.7035ZM80.7374 18.7035C79.5993 18.7035 78.0016 19.2831 77.2708 20.6611H77.2301V19.056H75.1092V30.0188H77.2708V24.0675C77.2708 21.9263 77.8483 21.4355 78.168 21.1311C79.079 20.2553 80.2888 20.3089 80.2888 20.3089C82.1159 20.3089 82.899 21.3123 82.899 23.1278V30.0188H85.0606V22.423C85.0606 18.905 81.5348 18.7035 80.7374 18.7035ZM113.406 18.8994C111.83 18.8994 110.378 19.6629 110.061 21.1702H110.02V19.056H107.859V30.0188H110.02V24.5765C110.02 22.2575 110.508 20.8638 113.242 20.7786C113.539 20.7786 113.842 20.7872 114.14 20.8961V18.9385C113.893 18.9385 113.678 18.8994 113.406 18.8994ZM95.1342 19.056V26.3775C95.1342 28.5863 96.4954 30.3319 98.8864 30.3319C100.48 30.3319 101.935 29.7867 102.802 28.4135H102.842V30.0188H104.963V19.056H102.802V24.694C102.802 24.9596 102.761 26.2532 102.353 27.2781C101.894 28.4156 100.712 28.8441 99.8244 28.8441C97.7493 28.8441 97.2958 27.4609 97.2958 25.5553V19.056H95.1342ZM115.322 19.056L120.094 29.9795L118.34 34.208H120.543L127.272 19.056H124.947L121.318 27.7087L117.729 19.056H115.322ZM67.6865 20.2305C69.7812 20.2305 70.6674 21.6397 70.623 23.4802H64.8316C64.8316 21.6836 65.8867 20.2305 67.6865 20.2305Z" fill="#808080"/>
<path d="M21.7258 5V16.3543L27.6394 6.52696C25.8097 5.71008 23.823 5.17916 21.7258 5ZM9.776 8.05391C8.09895 9.18903 6.63529 10.5954 5.45288 12.2041L15.6897 17.8813L9.776 8.05391ZM30.4128 8.05391L24.5399 17.8813L34.7766 12.2041C33.5917 10.5954 32.0912 9.18778 30.4128 8.05391ZM15.6897 26.3383L5.45288 32.0153C6.6366 33.6254 8.09895 35.0671 9.776 36.2048L15.6897 26.3383ZM24.499 26.3383L30.4128 36.2048C32.0925 35.0671 33.5917 33.6254 34.7766 32.0153L24.499 26.3383ZM18.5038 27.9043L12.5901 37.7317C14.4211 38.5473 16.4091 39.0771 18.5038 39.2586V27.9043Z" fill="#808080"/>
<path d="M18.5012 5C16.4066 5.17791 14.4186 5.71008 12.5876 6.52696L18.5012 16.3543V5ZM3.85975 14.9056C3.01535 16.6572 2.4571 18.5707 2.26917 20.5828H14.0966L3.85975 14.9056ZM36.3647 14.9056L26.1279 20.5828H37.9553C37.766 18.5707 37.2092 16.6572 36.3647 14.9056ZM2.26917 23.6759C2.45971 25.6918 3.01535 27.604 3.85975 29.353L14.0966 23.6759H2.26917ZM26.1279 23.6759L36.3647 29.353C37.2105 27.604 37.7687 25.6918 37.9553 23.6759H26.1279ZM21.7232 27.9043V39.2586C23.8192 39.0771 25.8059 38.5486 27.6369 37.7317L21.7232 27.9043Z" fill="#808080"/>
<path d="M32.619 5.37837V5H35.2932V5.37837H34.1852V8.17607H33.7284V5.37837H32.619Z" fill="#808080"/>
<path d="M38.7924 5.31448L37.7339 8.17607H37.3045L36.2448 5.31448H36.2344V8.17607H35.775V5H36.5972L37.5499 7.61729H37.5603L38.496 5H39.2621V8.17607H38.8053V5.31448H38.7924Z" fill="#808080"/>
</svg>
