<svg width="123" height="44" viewBox="0 0 123 44" fill="none" xmlns="http://www.w3.org/2000/svg">
<path d="M39.572 30.4402L41.1042 26.8817C42.7599 28.1173 44.9593 28.7598 47.1339 28.7598C48.7402 28.7598 49.7534 28.142 49.7534 27.2029C49.7287 24.5835 40.1404 26.6346 40.0663 20.0612C40.0416 16.7251 43.007 14.155 47.2081 14.155C49.704 14.155 52.1999 14.7729 53.9791 16.1814L52.5459 19.8141C50.9148 18.7762 48.8885 18.0348 46.9609 18.0348C45.6512 18.0348 44.7863 18.6526 44.7863 19.4434C44.811 22.0135 54.4734 20.6048 54.5722 26.8817C54.5722 30.2919 51.6809 32.689 47.5293 32.689C44.4897 32.689 41.6973 31.9723 39.572 30.4402ZM98.3618 25.5966C97.5959 26.9311 96.1622 27.8454 94.507 27.8454C92.0604 27.8454 90.0832 25.8685 90.0832 23.422C90.0832 20.9755 92.0604 18.9986 94.507 18.9986C96.1622 18.9986 97.5959 19.9129 98.3618 21.2474L102.588 18.8997C101.006 16.0825 97.9665 14.155 94.507 14.155C89.3915 14.155 85.2398 18.3066 85.2398 23.422C85.2398 28.5374 89.3915 32.689 94.507 32.689C97.9912 32.689 101.006 30.7862 102.588 27.9443L98.3618 25.5966ZM56.6975 6.46959H61.9858V32.3431H56.6975V6.46959ZM104.663 6.46959V32.3431H109.952V24.5835L116.229 32.3431H123L115.018 23.1255L122.407 14.5257H115.932L109.952 21.6674V6.46959H104.663ZM77.7026 25.6461C76.9365 26.9064 75.355 27.8454 73.5757 27.8454C71.1293 27.8454 69.1523 25.8685 69.1523 23.422C69.1523 20.9755 71.1293 18.9986 73.5757 18.9986C75.355 18.9986 76.9365 19.987 77.7026 21.2721V25.6461ZM77.7026 14.5257V16.6262C76.8377 15.1682 74.6878 14.155 72.439 14.155C67.7932 14.155 64.1358 18.2572 64.1358 23.3973C64.1358 28.5374 67.7932 32.689 72.439 32.689C74.6878 32.689 76.8377 31.6758 77.7026 30.2178V32.3184H82.991V14.5257H77.7026Z" fill="#808080"/>
<path d="M6.87821 25.6213C6.87821 27.4253 5.42021 28.8833 3.61623 28.8833C1.81226 28.8833 0.354248 27.4253 0.354248 25.6213C0.354248 23.8173 1.81226 22.3593 3.61623 22.3593H6.87821V25.6213ZM8.50921 25.6213C8.50921 23.8173 9.96721 22.3593 11.7711 22.3593C13.5752 22.3593 15.0332 23.8173 15.0332 25.6213V33.7763C15.0332 35.5802 13.5752 37.0383 11.7711 37.0383C9.96721 37.0383 8.50921 35.5802 8.50921 33.7763V25.6213Z" fill="#808080"/>
<path d="M11.7712 12.524C9.9673 12.524 8.50925 11.066 8.50925 9.26201C8.50925 7.45804 9.9673 6.00003 11.7712 6.00003C13.5753 6.00003 15.0332 7.45804 15.0332 9.26201V12.524H11.7712ZM11.7712 14.1797C13.5753 14.1797 15.0332 15.6377 15.0332 17.4417C15.0332 19.2457 13.5753 20.7037 11.7712 20.7037H3.59157C1.78759 20.7037 0.32959 19.2457 0.32959 17.4417C0.32959 15.6377 1.78759 14.1797 3.59157 14.1797H11.7712Z" fill="#808080"/>
<path d="M24.8439 17.4416C24.8439 15.6377 26.3019 14.1797 28.1059 14.1797C29.9098 14.1797 31.3678 15.6377 31.3678 17.4416C31.3678 19.2456 29.9098 20.7036 28.1059 20.7036H24.8439V17.4416ZM23.2129 17.4416C23.2129 19.2456 21.7549 20.7036 19.9509 20.7036C18.147 20.7036 16.689 19.2456 16.689 17.4416V9.26198C16.689 7.45801 18.147 6 19.9509 6C21.7549 6 23.2129 7.45801 23.2129 9.26198V17.4416Z" fill="#808080"/>
<path d="M19.9509 30.5143C21.7549 30.5143 23.2129 31.9722 23.2129 33.7763C23.2129 35.5802 21.7549 37.0383 19.9509 37.0383C18.147 37.0383 16.689 35.5802 16.689 33.7763V30.5143H19.9509ZM19.9509 28.8833C18.147 28.8833 16.689 27.4253 16.689 25.6213C16.689 23.8173 18.147 22.3593 19.9509 22.3593H28.1306C29.9345 22.3593 31.3925 23.8173 31.3925 25.6213C31.3925 27.4253 29.9345 28.8833 28.1306 28.8833H19.9509Z" fill="#808080"/>
</svg>
