<svg width="90" height="90" viewBox="0 0 90 90" fill="none" xmlns="http://www.w3.org/2000/svg">
<circle cx="45" cy="45" r="44.5" fill="#F3F2FD" stroke="#1E61FC"/>
<path d="M45.0001 47.7125C42.3376 47.7125 40.1626 45.55 40.1626 42.875C40.1626 40.2 42.3376 38.05 45.0001 38.05C47.6626 38.05 49.8376 40.2125 49.8376 42.8875C49.8376 45.5625 47.6626 47.7125 45.0001 47.7125ZM45.0001 39.925C43.3751 39.925 42.0376 41.25 42.0376 42.8875C42.0376 44.525 43.3626 45.85 45.0001 45.85C46.6376 45.85 47.9626 44.525 47.9626 42.8875C47.9626 41.25 46.6251 39.925 45.0001 39.925Z" fill="#1E61FC"/>
<path d="M45.0001 58.45C43.1501 58.45 41.2876 57.75 39.8376 56.3625C36.1501 52.8125 32.0751 47.15 33.6126 40.4125C35.0001 34.3 40.3376 31.5625 45.0001 31.5625C45.0001 31.5625 45.0001 31.5625 45.0126 31.5625C49.6751 31.5625 55.0126 34.3 56.4001 40.425C57.9251 47.1625 53.8501 52.8125 50.1626 56.3625C48.7126 57.75 46.8501 58.45 45.0001 58.45ZM45.0001 33.4375C41.3626 33.4375 36.6876 35.375 35.4501 40.825C34.1001 46.7125 37.8001 51.7875 41.1501 55C43.3126 57.0875 46.7001 57.0875 48.8626 55C52.2001 51.7875 55.9001 46.7125 54.5751 40.825C53.3251 35.375 48.6376 33.4375 45.0001 33.4375Z" fill="#1E61FC"/>
</svg>
