<svg width="91" height="90" viewBox="0 0 91 90" fill="none" xmlns="http://www.w3.org/2000/svg">
<circle cx="45.5" cy="45" r="44.5" fill="#F3F2FD" stroke="#1E61FC"/>
<path d="M45.5 58.5125C44.6375 58.5125 43.825 58.075 43.25 57.3125L41.375 54.8125C41.3375 54.7625 41.1875 54.7 41.125 54.6875H40.5C35.2875 54.6875 32.0625 53.275 32.0625 46.25V40C32.0625 34.475 34.975 31.5625 40.5 31.5625H50.5C56.025 31.5625 58.9375 34.475 58.9375 40V46.25C58.9375 51.775 56.025 54.6875 50.5 54.6875H49.875C49.775 54.6875 49.6875 54.7375 49.625 54.8125L47.75 57.3125C47.175 58.075 46.3625 58.5125 45.5 58.5125ZM40.5 33.4375C36.025 33.4375 33.9375 35.525 33.9375 40V46.25C33.9375 51.9 35.875 52.8125 40.5 52.8125H41.125C41.7625 52.8125 42.4875 53.175 42.875 53.6875L44.75 56.1875C45.1875 56.7625 45.8125 56.7625 46.25 56.1875L48.125 53.6875C48.5375 53.1375 49.1875 52.8125 49.875 52.8125H50.5C54.975 52.8125 57.0625 50.725 57.0625 46.25V40C57.0625 35.525 54.975 33.4375 50.5 33.4375H40.5Z" fill="#1E61FC"/>
<path d="M51.75 40.9375H39.25C38.7375 40.9375 38.3125 40.5125 38.3125 40C38.3125 39.4875 38.7375 39.0625 39.25 39.0625H51.75C52.2625 39.0625 52.6875 39.4875 52.6875 40C52.6875 40.5125 52.2625 40.9375 51.75 40.9375Z" fill="#1E61FC"/>
<path d="M46.75 47.1875H39.25C38.7375 47.1875 38.3125 46.7625 38.3125 46.25C38.3125 45.7375 38.7375 45.3125 39.25 45.3125H46.75C47.2625 45.3125 47.6875 45.7375 47.6875 46.25C47.6875 46.7625 47.2625 47.1875 46.75 47.1875Z" fill="#1E61FC"/>
</svg>
