<svg width="90" height="90" viewBox="0 0 90 90" fill="none" xmlns="http://www.w3.org/2000/svg">
<circle cx="45" cy="45" r="44.5" fill="#F3F2FD" stroke="#1E61FC"/>
<path d="M51.6996 59.594C50.2143 59.594 48.6501 59.2392 47.0333 58.5556C45.456 57.8853 43.8656 56.9652 42.3145 55.8479C40.7766 54.7175 39.2913 53.4556 37.8849 52.0755C36.4916 50.6691 35.2297 49.1837 34.1125 47.659C32.9821 46.0817 32.0751 44.5044 31.431 42.9796C30.7475 41.3497 30.4058 39.7724 30.4058 38.2871C30.4058 37.2618 30.5898 36.2892 30.9447 35.3822C31.3127 34.4489 31.9042 33.5814 32.706 32.8322C33.7181 31.8332 34.8748 31.3337 36.1104 31.3337C36.623 31.3337 37.1488 31.452 37.5957 31.6623C38.1083 31.8989 38.5421 32.2538 38.8576 32.727L41.9071 37.0252C42.1831 37.4064 42.3934 37.7745 42.538 38.1425C42.7089 38.5368 42.8009 38.9312 42.8009 39.3123C42.8009 39.8118 42.6563 40.2982 42.3802 40.7582C42.1831 41.1131 41.8808 41.4943 41.4996 41.8755L40.6058 42.8087C40.6189 42.8482 40.6321 42.8745 40.6452 42.9008C40.8029 43.1768 41.1184 43.65 41.723 44.3598C42.3671 45.0959 42.9717 45.7662 43.5764 46.384C44.3519 47.1464 44.996 47.751 45.6006 48.2505C46.3498 48.8814 46.8362 49.1969 47.1253 49.3415L47.0991 49.4072L48.0586 48.4608C48.4661 48.0533 48.8604 47.751 49.2416 47.5538C49.9645 47.1069 50.8846 47.0281 51.8047 47.4093C52.1465 47.5538 52.5145 47.751 52.9089 48.027L57.2728 51.1291C57.7591 51.4577 58.114 51.8783 58.3243 52.3778C58.5215 52.8773 58.6135 53.3373 58.6135 53.7974C58.6135 54.4283 58.4689 55.0593 58.1929 55.6508C57.9168 56.2422 57.5751 56.7549 57.1413 57.2281C56.3921 58.0562 55.5772 58.6477 54.6308 59.0288C53.7238 59.3969 52.738 59.594 51.6996 59.594ZM36.1104 33.3054C35.3875 33.3054 34.7171 33.6209 34.073 34.2518C33.4684 34.817 33.0478 35.4348 32.7849 36.1051C32.5089 36.7886 32.3774 37.5116 32.3774 38.2871C32.3774 39.5095 32.6666 40.8371 33.2449 42.2041C33.8364 43.5974 34.6645 45.0433 35.7161 46.4892C36.7676 47.935 37.9638 49.3415 39.2782 50.6691C40.5926 51.9703 42.0122 53.1796 43.4712 54.2443C44.8908 55.2827 46.3498 56.1239 47.7957 56.7286C50.0434 57.6881 52.1465 57.9116 53.8815 57.1886C54.5519 56.9126 55.1434 56.492 55.6823 55.8873C55.9846 55.5587 56.2212 55.2038 56.4184 54.7832C56.5761 54.4546 56.655 54.1129 56.655 53.7711C56.655 53.5608 56.6156 53.3505 56.5104 53.1139C56.471 53.035 56.3921 52.8904 56.1424 52.7196L51.7784 49.6175C51.5156 49.4335 51.279 49.302 51.0555 49.21C50.7663 49.0917 50.648 48.9734 50.2011 49.2495C49.9382 49.3809 49.7016 49.5781 49.4388 49.841L48.4398 50.8268C47.9272 51.3263 47.1385 51.4446 46.5339 51.2211L46.179 51.0634C45.64 50.7742 45.0091 50.3273 44.3125 49.7358C43.6815 49.1969 42.998 48.566 42.1699 47.751C41.5259 47.0938 40.8818 46.3971 40.2114 45.6216C39.5936 44.8987 39.1467 44.2809 38.8707 43.7683L38.713 43.3739C38.6341 43.0716 38.6078 42.9008 38.6078 42.7167C38.6078 42.2435 38.7787 41.8229 39.1073 41.4943L40.0931 40.469C40.356 40.2062 40.5532 39.9564 40.6846 39.733C40.7898 39.5621 40.8292 39.4175 40.8292 39.2861C40.8292 39.1809 40.7898 39.0232 40.7241 38.8654C40.6321 38.6551 40.4875 38.4185 40.3034 38.1688L37.254 33.8575C37.1225 33.6734 36.9648 33.542 36.7676 33.45C36.5573 33.358 36.3339 33.3054 36.1104 33.3054ZM47.0991 49.4203L46.8888 50.3142L47.2436 49.394C47.1779 49.3809 47.1253 49.3941 47.0991 49.4203Z" fill="#1E61FC"/>
</svg>
